<?xml version="1.0" encoding="utf-8"?>
<!-- Generator: Adobe Illustrator 16.0.0, SVG Export Plug-In . SVG Version: 6.00 Build 0)  -->
<!DOCTYPE svg PUBLIC "-//W3C//DTD SVG 1.1//EN" "http://www.w3.org/Graphics/SVG/1.1/DTD/svg11.dtd">
<svg version="1.1" id="Layer_1" xmlns="http://www.w3.org/2000/svg" xmlns:xlink="http://www.w3.org/1999/xlink" x="0px" y="0px"
	 width="250px" height="64px" viewBox="0 0 250 64" enable-background="new 0 0 250 64" xml:space="preserve">
<g>
	<path fill="#F7941E" d="M28.073,15.145v12.961h6.577V15.145h6.289V47.5h-6.289V33.963h-6.577V47.5h-6.289V15.145H28.073z"/>
	<path fill="#F7941E" d="M52.601,15.145v21.026c0,4.753,1.44,6.192,3.072,6.192c1.824,0,3.12-1.296,3.12-6.192V15.145h6.289v19.921
		c0,8.305-3.12,12.817-9.361,12.817c-6.769,0-9.409-4.656-9.409-12.769v-19.97H52.601z"/>
	<path fill="#F7941E" d="M74.008,20.954h-5.712v-5.809h17.761v5.809h-5.76V47.5h-6.289V20.954z"/>
	<path fill="#F7941E" d="M103.049,33.291h-7.393v8.736h8.353V47.5H89.368V15.145h14.065v5.473h-7.777v7.44h7.393V33.291z"/>
	<path fill="#F7941E" d="M123.785,47.02c-0.912,0.433-2.688,0.769-4.896,0.769c-8.257,0-12.193-6.816-12.193-15.985
		c0-12.193,6.769-16.945,13.057-16.945c2.208,0,3.744,0.432,4.368,0.864l-1.056,5.281c-0.72-0.336-1.536-0.625-2.928-0.625
		c-3.552,0-6.769,3.072-6.769,11.089c0,7.729,2.928,10.753,6.769,10.753c1.056,0,2.256-0.24,3.024-0.48L123.785,47.02z"/>
	<path fill="#F7941E" d="M133.528,15.145v12.961h6.576V15.145h6.288V47.5h-6.288V33.963h-6.576V47.5h-6.289V15.145H133.528z"/>
	<path fill="#F7941E" d="M160.168,31.995v4.512h-9.553v-4.512H160.168z"/>
	<path fill="#F7941E" d="M169.384,40.107l-1.44,7.393h-6.097l7.009-32.355h7.537l6.288,32.355h-6.097l-1.392-7.393H169.384z
		 M174.616,35.211l-1.057-6.769c-0.336-1.968-0.768-5.185-1.056-7.345h-0.145c-0.336,2.16-0.815,5.521-1.151,7.393l-1.2,6.721
		H174.616z"/>
	<path fill="#F7941E" d="M192.52,15.145V47.5h-6.289V15.145H192.52z"/>
	<path fill="#F7941E" d="M214.456,35.691c0,9.793-5.425,12.192-8.977,12.192c-5.617,0-8.977-4.416-8.977-12.049
		c0-8.449,4.416-12.193,9.072-12.193C211.096,23.642,214.456,28.298,214.456,35.691z M202.743,35.691
		c0,4.031,0.624,7.393,2.88,7.393c2.017,0,2.545-3.937,2.545-7.393c0-3.217-0.528-7.297-2.641-7.297
		C203.223,28.395,202.743,32.475,202.743,35.691z"/>
	<path fill="#F7941E" d="M220.454,20.954h-5.712v-5.809h17.762v5.809h-5.761V47.5h-6.289V20.954z"/>
</g>
<g>
</g>
<g>
</g>
<g>
</g>
<g>
</g>
<g>
</g>
<g>
</g>
<g>
</g>
</svg>
