<?xml version="1.0" standalone="no"?>
<!DOCTYPE svg PUBLIC "-//W3C//DTD SVG 20010904//EN"
 "http://www.w3.org/TR/2001/REC-SVG-20010904/DTD/svg10.dtd">
<svg version="1.0" xmlns="http://www.w3.org/2000/svg"
 width="192.000000pt" height="222.000000pt" viewBox="0 0 192.000000 222.000000"
 preserveAspectRatio="xMidYMid meet">

<g transform="translate(0.000000,222.000000) scale(0.100000,-0.100000)"
fill="#000000" stroke="none">
<path d="M615 2195 c-60 -7 -150 -20 -200 -30 -142 -26 -361 -91 -391 -116
-11 -9 -12 -126 -8 -627 3 -388 8 -636 15 -667 16 -74 81 -202 138 -271 66
-81 157 -148 316 -233 166 -89 451 -221 476 -221 25 0 436 189 539 249 209
119 333 264 387 446 15 54 17 126 20 692 l4 631 -78 30 c-139 54 -359 101
-572 122 -138 13 -509 11 -646 -5z m-155 -190 c0 -33 2 -35 35 -35 33 0 35 2
35 35 0 31 3 35 25 35 l25 0 0 -100 0 -100 -25 0 c-22 0 -25 4 -25 40 0 39 -1
40 -35 40 -34 0 -35 -1 -35 -40 0 -36 -2 -40 -25 -40 -25 0 -25 0 -25 93 0 52
3 97 7 100 3 4 15 7 25 7 14 0 18 -8 18 -35z m202 -42 l3 -78 30 0 30 0 3 78
c3 74 4 77 27 77 24 0 25 -2 25 -78 0 -47 -5 -85 -13 -95 -27 -38 -117 -38
-144 0 -8 10 -13 48 -13 95 0 76 1 78 25 78 23 0 24 -3 27 -77z m298 57 c0
-16 -7 -20 -30 -20 l-30 0 0 -80 c0 -79 0 -80 -25 -80 -25 0 -25 1 -25 80 0
79 0 80 -25 80 -18 0 -25 5 -25 20 0 18 7 20 80 20 73 0 80 -2 80 -20z m160 0
c0 -17 -7 -20 -50 -20 -43 0 -50 -3 -50 -20 0 -17 7 -20 45 -20 38 0 45 -3 45
-20 0 -17 -7 -20 -45 -20 -38 0 -45 -3 -45 -20 0 -17 7 -20 49 -20 33 0 51 -5
54 -14 9 -22 -2 -26 -80 -26 l-73 0 0 100 0 100 75 0 c68 0 75 -2 75 -20z
m174 -1 c33 -26 34 -49 1 -49 -14 0 -25 4 -25 10 0 16 -49 23 -65 10 -18 -15
-20 -81 -3 -98 19 -19 56 -14 68 8 14 25 50 27 50 2 0 -49 -82 -80 -134 -52
-51 27 -62 110 -20 159 32 38 87 43 128 10z m96 -13 c0 -31 3 -34 35 -38 35
-4 35 -4 35 34 0 34 3 38 25 38 l25 0 0 -100 0 -100 -25 0 c-22 0 -25 4 -25
40 0 39 -1 40 -35 40 -34 0 -35 -1 -35 -41 0 -36 -2 -40 -22 -37 -22 3 -23 9
-26 87 -3 98 0 111 28 111 16 0 20 -6 20 -34z m-940 -290 c0 -67 10 -86 47
-86 30 0 43 33 43 106 0 40 3 54 13 51 8 -2 12 -27 12 -75 0 -83 -15 -106 -69
-106 -57 0 -76 26 -76 104 0 37 3 70 6 73 16 15 24 -8 24 -67z m310 54 c0 -21
-15 -27 -25 -10 -7 12 2 30 16 30 5 0 9 -9 9 -20z m525 0 c0 -7 -6 -15 -12
-17 -8 -3 -13 4 -13 17 0 13 5 20 13 18 6 -3 12 -11 12 -18z m65 -9 c0 -10 8
-22 18 -26 16 -6 16 -7 0 -19 -22 -16 -24 -74 -3 -82 23 -9 18 -24 -9 -24 -27
0 -36 16 -36 64 0 18 -6 38 -12 44 -9 9 -10 15 -2 20 6 4 13 15 17 25 9 23 27
22 27 -2z m-652 -88 c2 -39 -1 -63 -8 -63 -5 0 -10 22 -10 50 0 36 -4 52 -15
56 -26 10 -45 -16 -45 -62 0 -24 -4 -44 -10 -44 -11 0 -11 1 -11 70 0 28 0 52
0 54 1 2 22 3 49 2 l47 -1 3 -62z m62 2 c0 -51 -3 -65 -15 -65 -12 0 -15 13
-15 58 0 32 3 62 7 65 17 17 23 2 23 -58z m62 20 c7 -25 15 -45 18 -45 3 0 11
20 18 45 8 29 17 45 28 45 11 0 14 -6 8 -22 -18 -57 -44 -108 -56 -108 -7 0
-22 24 -32 53 -10 28 -21 58 -23 65 -3 6 2 12 11 12 11 0 20 -15 28 -45z m194
20 c24 -37 12 -55 -36 -55 -22 0 -40 -4 -40 -9 0 -15 41 -24 53 -12 6 6 17 11
24 11 11 0 11 -5 3 -20 -13 -25 -66 -27 -92 -3 -22 20 -23 61 -2 91 21 31 69
30 90 -3z m104 14 c0 -4 -9 -13 -20 -19 -15 -8 -20 -21 -20 -55 0 -33 -4 -45
-15 -45 -12 0 -15 14 -15 63 l0 63 35 1 c19 1 35 -3 35 -8z m100 -4 c18 -21 3
-32 -22 -16 -14 8 -24 9 -30 3 -7 -7 1 -16 26 -26 68 -28 56 -79 -18 -74 -34
2 -42 7 -44 26 -4 25 13 30 22 6 3 -9 15 -14 28 -12 32 4 24 21 -15 34 -35 12
-46 36 -27 59 16 20 64 19 80 0z m70 -50 c0 -51 -3 -65 -15 -65 -12 0 -15 14
-15 65 0 51 3 65 15 65 12 0 15 -14 15 -65z m140 15 l17 -44 13 40 c14 43 26
61 36 51 9 -9 -44 -153 -62 -168 -16 -13 -48 -4 -39 11 4 6 10 8 15 5 19 -12
19 35 0 79 -11 26 -20 54 -20 63 0 28 23 7 40 -37z m-65 -215 c175 -26 421
-90 473 -124 11 -7 13 -62 10 -292 -4 -258 -6 -290 -26 -349 -47 -140 -133
-246 -281 -345 -89 -59 -307 -172 -316 -163 -2 2 -7 42 -11 90 -6 78 -5 90 15
121 22 35 28 82 12 91 -5 3 -12 -6 -15 -20 -11 -43 -107 -129 -171 -153 -68
-26 -151 -28 -177 -5 -16 16 -18 15 -24 0 -8 -21 7 -38 48 -52 24 -8 39 -26
69 -84 22 -41 39 -78 39 -82 0 -5 -11 -13 -24 -19 -21 -10 -43 -3 -163 52
-187 86 -353 172 -435 224 -124 81 -215 191 -277 337 l-26 63 0 293 0 294 50
19 c124 48 350 97 550 119 124 13 552 4 680 -15z m-189 -1230 c7 -33 9 -63 6
-66 -4 -4 -33 -18 -65 -32 l-58 -26 -29 62 c-34 71 -33 74 45 106 76 31 87 26
101 -44z"/>
<path d="M953 1713 c-24 -9 -13 -23 18 -23 27 0 30 2 19 15 -13 16 -17 17 -37
8z"/>
<path d="M1243 1308 c-91 -97 -86 -223 15 -371 92 -133 98 -199 27 -292 -36
-46 -32 -57 9 -30 37 24 76 90 82 139 8 57 -7 99 -67 191 -64 99 -87 145 -95
192 -7 46 17 123 53 170 33 42 16 43 -24 1z"/>
<path d="M1052 1158 c-11 -18 -27 -56 -36 -83 -26 -82 -64 -118 -179 -173
-104 -50 -166 -103 -187 -158 -14 -37 -12 -119 4 -157 13 -33 97 -117 116
-117 5 0 10 -13 10 -28 0 -57 60 -79 169 -61 81 13 141 38 198 85 72 59 98
121 66 156 -22 24 -36 23 -21 -2 17 -27 -5 -64 -68 -112 -70 -54 -153 -82
-244 -83 -62 0 -75 3 -78 17 -3 14 5 16 44 15 30 -1 48 3 51 11 3 8 -7 12 -32
12 -78 0 -141 58 -166 152 -26 96 32 183 150 229 123 48 171 102 200 226 7 28
19 60 26 70 17 21 19 33 6 33 -5 0 -18 -15 -29 -32z"/>
<path d="M1117 977 c-13 -33 -7 -95 13 -147 33 -83 24 -148 -27 -202 -32 -33
-24 -48 10 -21 76 57 97 156 53 247 -15 30 -30 74 -34 98 -6 32 -10 38 -15 25z"/>
<path d="M986 879 c-20 -46 -29 -56 -114 -123 -117 -93 -142 -158 -82 -217 39
-39 53 -30 28 20 -18 36 -18 42 -4 75 8 20 41 60 73 88 31 29 71 67 89 85 32
33 44 33 44 2 0 -10 5 -21 12 -25 17 -11 2 96 -16 114 -13 13 -16 11 -30 -19z"/>
</g>
</svg>
