<svg xmlns="http://www.w3.org/2000/svg" width="250" height="250" viewBox="0 0 250 250" version="1.1"><path d="M 100 1.500 C 100 1.775, 100.225 2, 100.500 2 C 100.775 2, 101 1.775, 101 1.500 C 101 1.225, 100.775 1, 100.500 1 C 100.225 1, 100 1.225, 100 1.500 M 149 1.500 C 149 1.775, 149.225 2, 149.500 2 C 149.775 2, 150 1.775, 150 1.500 C 150 1.225, 149.775 1, 149.500 1 C 149.225 1, 149 1.225, 149 1.500 M 88 4.500 C 88 4.775, 88.225 5, 88.500 5 C 88.775 5, 89 4.775, 89 4.500 C 89 4.225, 88.775 4, 88.500 4 C 88.225 4, 88 4.225, 88 4.500 M 103 5.544 C 53.827 14.490, 14.059 54.581, 5.463 103.871 C 3.586 114.634, 3.586 135.366, 5.463 146.129 C 14.126 195.807, 54.193 235.874, 103.871 244.537 C 114.634 246.414, 135.366 246.414, 146.129 244.537 C 195.847 235.867, 235.867 195.847, 244.537 146.129 C 246.414 135.366, 246.414 114.634, 244.537 103.871 C 235.874 54.193, 195.807 14.126, 146.129 5.463 C 135.735 3.651, 113.174 3.693, 103 5.544 M 161 4.500 C 161 4.775, 161.225 5, 161.500 5 C 161.775 5, 162 4.775, 162 4.500 C 162 4.225, 161.775 4, 161.500 4 C 161.225 4, 161 4.225, 161 4.500 M 104.729 6.512 C 78.738 10.881, 54.684 24.092, 36.226 44.135 C 32.910 47.735, 32.297 48.900, 33.479 49.353 C 34.315 49.675, 35 50.417, 35 51.004 C 35 51.746, 34.416 51.758, 33.079 51.042 C 31.466 50.179, 30.691 50.615, 28.252 53.757 C 2.073 87.492, -2.489 138.928, 17.231 178 C 24.907 193.208, 33.249 204.043, 46.126 215.533 C 81.078 246.720, 133.960 253.991, 176.500 233.459 C 192.133 225.914, 203.650 217.193, 215.465 203.951 C 238.778 177.823, 249.275 140.905, 243.504 105.328 C 235.334 54.951, 195.049 14.666, 144.672 6.496 C 133.657 4.709, 115.406 4.717, 104.729 6.512 M 79 7.500 C 79 7.775, 79.225 8, 79.500 8 C 79.775 8, 80 7.775, 80 7.500 C 80 7.225, 79.775 7, 79.500 7 C 79.225 7, 79 7.225, 79 7.500 M 72 10.500 C 72 10.775, 72.225 11, 72.500 11 C 72.775 11, 73 10.775, 73 10.500 C 73 10.225, 72.775 10, 72.500 10 C 72.225 10, 72 10.225, 72 10.500 M 177 10.500 C 177 10.775, 177.225 11, 177.500 11 C 177.775 11, 178 10.775, 178 10.500 C 178 10.225, 177.775 10, 177.500 10 C 177.225 10, 177 10.225, 177 10.500 M 70 11.500 C 70 11.775, 70.225 12, 70.500 12 C 70.775 12, 71 11.775, 71 11.500 C 71 11.225, 70.775 11, 70.500 11 C 70.225 11, 70 11.225, 70 11.500 M 112.557 14.223 C 110.522 17.128, 110.591 19.273, 112.807 22.010 C 114.364 23.933, 115.193 24.143, 118.807 23.533 C 122.394 22.927, 123 22.471, 123 20.381 C 123 17.649, 120.898 16.395, 118.250 17.548 C 116.600 18.266, 116.604 18.334, 118.305 18.739 C 120.881 19.351, 119.800 21.500, 116.917 21.500 C 114.821 21.500, 114.500 21.034, 114.500 18 C 114.500 14.583, 114.589 14.505, 118.250 14.720 C 122.052 14.943, 123.311 13.717, 120.418 12.607 C 117.255 11.393, 114.082 12.045, 112.557 14.223 M 130.500 13 C 130.840 13.550, 131.829 14, 132.698 14 C 134.007 14, 134.177 14.860, 133.686 19 C 133.215 22.977, 133.391 24, 134.547 24 C 135.607 24, 136 22.757, 136 19.406 C 136 15.654, 136.366 14.717, 138 14.290 C 141.756 13.308, 140.009 12, 134.941 12 C 131.823 12, 130.119 12.384, 130.500 13 M 66 13.500 C 66 13.775, 66.225 14, 66.500 14 C 66.775 14, 67 13.775, 67 13.500 C 67 13.225, 66.775 13, 66.500 13 C 66.225 13, 66 13.225, 66 13.500 M 105.511 16.750 L 106.113 20.500 103.234 17.250 C 98.934 12.397, 97.668 12.933, 98.520 19.250 C 99.306 25.071, 99.661 26, 101.104 26 C 101.684 26, 101.843 24.456, 101.489 22.250 L 100.887 18.500 103.766 21.750 C 108.066 26.603, 109.332 26.067, 108.480 19.750 C 107.694 13.929, 107.339 13, 105.896 13 C 105.316 13, 105.157 14.544, 105.511 16.750 M 143.677 13.750 C 143.434 14.162, 142.924 16.075, 142.543 18 C 142.162 19.925, 141.629 22.288, 141.358 23.250 C 141.039 24.382, 141.419 25, 142.433 25 C 143.317 25, 144 24.155, 144 23.059 C 144 20.672, 145.280 19.787, 147.499 20.638 C 148.631 21.072, 149.030 22.061, 148.724 23.665 C 148.473 24.976, 148.659 26.289, 149.136 26.584 C 150.138 27.204, 151.423 24.125, 152.405 18.750 C 152.956 15.739, 152.786 15, 151.545 15 C 150.641 15, 150 15.873, 150 17.107 C 150 18.617, 149.552 19.042, 148.418 18.607 C 147.548 18.273, 146.415 18, 145.899 18 C 145.384 18, 145.244 16.875, 145.589 15.500 C 146.168 13.194, 144.761 11.907, 143.677 13.750 M 86.667 14.667 C 85.399 15.935, 86.002 17.243, 87.342 16.131 C 88.080 15.519, 88.980 15.313, 89.342 15.675 C 89.704 16.037, 90 15.808, 90 15.167 C 90 13.910, 87.759 13.574, 86.667 14.667 M 59 17.500 C 59 17.775, 59.225 18, 59.500 18 C 59.775 18, 60 17.775, 60 17.500 C 60 17.225, 59.775 17, 59.500 17 C 59.225 17, 59 17.225, 59 17.500 M 85.913 19.087 C 83.416 21.584, 83.964 25.552, 87.182 28.273 C 90.649 31.205, 96 28.672, 96 24.100 C 96 17.806, 90.118 14.882, 85.913 19.087 M 155.639 21.545 C 154.173 25.849, 154.194 26.194, 156.045 28.045 C 159.555 31.555, 162.912 30.346, 164.496 25 C 164.903 23.625, 165.931 21.710, 166.779 20.744 C 168.683 18.576, 168.176 17.977, 165.344 19.049 C 164.078 19.529, 162.917 21.102, 162.530 22.864 C 161.735 26.484, 159.925 28.190, 158.085 27.053 C 156.965 26.360, 157.002 25.441, 158.308 21.610 C 159.586 17.859, 159.628 17, 158.533 17 C 157.793 17, 156.491 19.045, 155.639 21.545 M 190 17.500 C 190 17.775, 190.225 18, 190.500 18 C 190.775 18, 191 17.775, 191 17.500 C 191 17.225, 190.775 17, 190.500 17 C 190.225 17, 190 17.225, 190 17.500 M 88.250 19.662 C 85.371 20.824, 87.265 27, 90.500 27 C 93.047 27, 94.274 24.912, 93.292 22.250 C 92.264 19.466, 90.712 18.669, 88.250 19.662 M 74.223 23.557 C 69.945 26.553, 72.681 35, 77.929 35 C 80.500 35, 83.001 32.373, 82.995 29.679 C 82.990 27.659, 82.808 27.719, 80.499 30.500 L 78.008 33.500 75.962 31.087 C 73.119 27.735, 73.802 25.569, 77.824 25.182 C 80.566 24.918, 80.928 24.618, 79.943 23.432 C 78.417 21.592, 76.982 21.624, 74.223 23.557 M 169.153 23.750 C 165.961 26.451, 165.424 30.424, 167.913 32.913 C 169.061 34.061, 170.900 35, 172 35 C 174.523 35, 178 31.594, 178 29.122 C 178 28.090, 178.670 26.689, 179.489 26.009 C 180.308 25.329, 180.702 24.326, 180.364 23.780 C 179.983 23.163, 179.460 23.256, 178.984 24.026 C 178.393 24.982, 177.685 24.893, 175.886 23.633 C 172.925 21.559, 171.718 21.580, 169.153 23.750 M 199 23.500 C 199 23.775, 199.225 24, 199.500 24 C 199.775 24, 200 23.775, 200 23.500 C 200 23.225, 199.775 23, 199.500 23 C 199.225 23, 199 23.225, 199 23.500 M 170.238 26.162 C 168.467 27.933, 168.710 31.675, 170.645 32.417 C 172.851 33.264, 176.163 30.136, 175.794 27.555 C 175.454 25.176, 172.072 24.328, 170.238 26.162 M 179.554 31.915 C 178.149 34.140, 177 36.419, 177 36.980 C 177 38.139, 178.988 38.404, 179.022 37.250 C 179.034 36.837, 179.929 35.375, 181.011 34 L 182.977 31.500 182.738 36.392 C 182.422 42.891, 184.156 43.296, 187.545 37.513 C 190.684 32.158, 190.011 30.220, 186.514 34.539 L 184.117 37.500 184.308 33.108 C 184.562 27.287, 182.760 26.835, 179.554 31.915 M 104.965 30.882 C 67.152 39.129, 37.617 69.511, 30.459 107.525 C 28.269 119.151, 28.901 138.116, 31.846 149.198 C 40.664 182.380, 67.184 208.932, 100.802 218.240 C 112.015 221.344, 138.024 221.332, 149.284 218.218 C 182.829 208.938, 208.934 182.809, 218.240 149.198 C 221.332 138.028, 221.332 111.972, 218.240 100.802 C 208.933 67.187, 182.441 40.723, 149.198 31.833 C 137.991 28.836, 116.467 28.373, 104.965 30.882 M 108.342 31.412 C 71.721 38.403, 42.672 65.371, 32.844 101.500 C 29.705 113.042, 29.705 136.958, 32.844 148.500 C 41.949 181.972, 68.028 208.051, 101.500 217.156 C 108.107 218.953, 112.200 219.332, 125 219.332 C 137.800 219.332, 141.893 218.953, 148.500 217.156 C 181.972 208.051, 208.051 181.972, 217.156 148.500 C 220.295 136.958, 220.295 113.042, 217.156 101.500 C 214.570 91.996, 208.765 79.504, 202.886 70.794 C 191.044 53.252, 169.861 38.505, 148.500 32.934 C 138.177 30.241, 118.399 29.492, 108.342 31.412 M 57.061 33.939 C 54.327 36.673, 54.458 39.549, 57.455 42.545 C 60.432 45.523, 62.361 45.639, 65 43 C 66.100 41.900, 67.450 41, 68 41 C 69.445 41, 69.240 40.121, 67.188 37.512 C 65.821 35.774, 64.963 35.441, 63.688 36.154 C 61.557 37.347, 61.459 39.421, 63.573 38.610 C 64.686 38.183, 65.048 38.514, 64.811 39.742 C 64.397 41.892, 61.397 42.574, 59.452 40.960 C 57.674 39.485, 57.527 35.044, 59.250 34.885 C 59.938 34.821, 61.057 34.709, 61.739 34.635 C 63.913 34.398, 63.584 32.512, 61.311 32.189 C 60.092 32.015, 58.210 32.790, 57.061 33.939 M 191.695 38.111 C 188.735 39.833, 187.692 43.880, 189.496 46.635 C 190.349 47.936, 191.673 49, 192.440 49 C 193.206 49, 194.031 49.563, 194.272 50.250 C 194.558 51.066, 195.427 50.632, 196.775 49 C 198.652 46.727, 198.699 46.343, 197.286 44.774 C 195.399 42.676, 193.375 43.542, 195.154 45.685 C 196.217 46.967, 196.039 47.140, 193.962 46.846 C 190.923 46.415, 190.236 43.502, 192.567 40.926 C 194.940 38.304, 196.862 38.508, 198 41.500 C 199.041 44.237, 201 44.890, 201 42.500 C 201 40.436, 197.381 36.993, 195.250 37.030 C 194.287 37.047, 192.688 37.533, 191.695 38.111 M 49 40.865 C 49 41.341, 49.933 42.916, 51.073 44.365 C 53.436 47.370, 53.412 47.388, 49.137 45.898 C 47.398 45.292, 45.227 45.082, 44.314 45.433 C 42.946 45.958, 43.420 46.852, 46.992 50.492 C 49.379 52.924, 51.744 54.658, 52.248 54.347 C 52.752 54.035, 51.918 52.480, 50.395 50.890 C 47.395 47.759, 47.933 47.384, 52.927 49.124 C 57.966 50.881, 58.542 48.993, 54.431 44.191 C 51.020 40.206, 49 38.969, 49 40.865 M 208.091 50.610 C 209.248 52.004, 208.918 52.687, 205.634 55.697 C 203.547 57.609, 202.123 59.456, 202.468 59.801 C 202.813 60.147, 203.686 59.995, 204.408 59.465 C 210.319 55.117, 211.042 54.790, 212.347 55.873 C 213.082 56.483, 213.957 56.709, 214.292 56.375 C 215.175 55.492, 209.749 49, 208.128 49 C 206.979 49, 206.973 49.263, 208.091 50.610 M 34.750 52.167 C 33.269 53.718, 33.236 54, 34.531 54 C 35.374 54, 36.329 53.306, 36.655 52.457 C 37.522 50.196, 36.744 50.078, 34.750 52.167 M 158 51.519 C 147.394 54.128, 129.188 62.735, 125.182 67.035 C 124.252 68.033, 120.793 70.474, 117.495 72.457 C 114.198 74.441, 107.730 79.312, 103.122 83.282 C 94.373 90.820, 77.358 109.094, 75.019 113.465 C 73.572 116.168, 74.080 117.854, 77.829 122.790 L 79.569 125.080 82.942 120.578 C 84.797 118.102, 86.763 116.354, 87.312 116.693 C 87.876 117.041, 87.997 116.804, 87.591 116.147 C 87.189 115.497, 87.562 114.722, 88.437 114.386 C 89.296 114.056, 90 113.264, 90 112.627 C 90 110.958, 111.073 90.451, 120.500 82.946 C 124.900 79.443, 130.300 75.599, 132.500 74.404 C 134.700 73.209, 138.601 71.036, 141.169 69.575 C 147.820 65.792, 160.559 61.363, 167 60.594 C 176.650 59.443, 184.356 62.871, 188.013 69.942 C 189.783 73.365, 189.513 84.724, 187.496 91.664 C 184.423 102.239, 175.084 119.342, 166.707 129.737 C 138.156 165.164, 103.250 188.981, 79.500 189.241 C 68.898 189.356, 63.310 185.579, 60.912 176.675 C 58.771 168.721, 63.013 152.300, 70.424 139.859 L 73.839 134.126 70.542 129.488 L 67.244 124.849 65.068 127.905 C 61.526 132.879, 54.281 148.999, 52.441 156 C 50.246 164.353, 50.188 179.529, 52.336 183.683 C 53.180 185.314, 56.741 189.335, 60.251 192.618 C 67.288 199.201, 68.835 199.668, 82.268 199.261 C 94.441 198.893, 114.145 190.928, 127 181.179 C 130.025 178.886, 132.888 177.007, 133.361 177.004 C 137.104 176.986, 177 137.272, 177 133.565 C 177 132.295, 181.555 126.023, 182.500 125.992 C 184.276 125.934, 195.978 100.748, 198.020 92.590 C 200.110 84.241, 200.418 79.330, 199.344 71.493 C 198.780 67.375, 197.786 65.750, 192.226 59.857 C 187.041 54.360, 184.765 52.711, 180.701 51.504 C 174.573 49.684, 165.437 49.690, 158 51.519 M 69.333 51.667 C 69.700 52.033, 70.300 52.033, 70.667 51.667 C 71.033 51.300, 70.733 51, 70 51 C 69.267 51, 68.967 51.300, 69.333 51.667 M 66.333 52.667 C 66.700 53.033, 67.300 53.033, 67.667 52.667 C 68.033 52.300, 67.733 52, 67 52 C 66.267 52, 65.967 52.300, 66.333 52.667 M 21 53.500 C 21 53.775, 21.225 54, 21.500 54 C 21.775 54, 22 53.775, 22 53.500 C 22 53.225, 21.775 53, 21.500 53 C 21.225 53, 21 53.225, 21 53.500 M 36.534 53.945 C 35.762 55.195, 41.926 65.163, 43.045 64.472 C 43.522 64.177, 43.657 63.270, 43.344 62.455 C 42.620 60.568, 44.799 57.892, 46.780 58.237 C 47.612 58.382, 48.454 58.044, 48.651 57.486 C 48.848 56.929, 46.809 55.691, 44.120 54.736 C 38.524 52.749, 37.349 52.626, 36.534 53.945 M 40.150 56.950 C 40.580 58.239, 41.951 58.471, 42.075 57.275 C 42.116 56.876, 41.610 56.370, 40.950 56.150 C 40.290 55.930, 39.930 56.290, 40.150 56.950 M 17 59.500 C 17 59.775, 17.225 60, 17.500 60 C 17.775 60, 18 59.775, 18 59.500 C 18 59.225, 17.775 59, 17.500 59 C 17.225 59, 17 59.225, 17 59.500 M 211.701 62.162 C 208.478 64.270, 207.232 65.632, 207.908 66.308 C 208.584 66.984, 209.372 66.936, 210.306 66.161 C 211.390 65.262, 212.095 65.448, 213.503 67.004 C 215.675 69.404, 218.282 69.571, 220.064 67.423 C 221.155 66.109, 221.066 65.278, 219.529 62.423 C 218.515 60.540, 217.418 59.005, 217.093 59.012 C 216.767 59.018, 214.340 60.436, 211.701 62.162 M 232 59.500 C 232 59.775, 232.225 60, 232.500 60 C 232.775 60, 233 59.775, 233 59.500 C 233 59.225, 232.775 59, 232.500 59 C 232.225 59, 232 59.225, 232 59.500 M 29.073 64.635 C 26.291 68.171, 26.450 69.119, 30.257 71.695 C 35.526 75.262, 36.387 75.307, 38.273 72.115 C 40.546 68.266, 40.461 67.370, 37.545 64.455 C 34.377 61.286, 31.661 61.344, 29.073 64.635 M 214.992 63.005 C 213.690 63.810, 213.718 64.146, 215.213 65.641 C 216.831 67.260, 216.964 67.258, 217.596 65.610 C 218.466 63.342, 216.931 61.807, 214.992 63.005 M 30.345 66.543 C 29.511 68.717, 30.669 69.520, 32.476 68.020 C 33.758 66.956, 34 67.083, 34 68.819 C 34 71.675, 35.690 72.448, 36.918 70.154 C 37.699 68.694, 37.518 67.873, 36.139 66.626 C 33.871 64.574, 31.116 64.534, 30.345 66.543 M 13 66.500 C 13 66.775, 13.225 67, 13.500 67 C 13.775 67, 14 66.775, 14 66.500 C 14 66.225, 13.775 66, 13.500 66 C 13.225 66, 13 66.225, 13 66.500 M 52 66.500 C 52 66.775, 52.225 67, 52.500 67 C 52.775 67, 53 66.775, 53 66.500 C 53 66.225, 52.775 66, 52.500 66 C 52.225 66, 52 66.225, 52 66.500 M 236 66.500 C 236 66.775, 236.225 67, 236.500 67 C 236.775 67, 237 66.775, 237 66.500 C 237 66.225, 236.775 66, 236.500 66 C 236.225 66, 236 66.225, 236 66.500 M 12 68.500 C 12 68.775, 12.225 69, 12.500 69 C 12.775 69, 13 68.775, 13 68.500 C 13 68.225, 12.775 68, 12.500 68 C 12.225 68, 12 68.225, 12 68.500 M 237 68.500 C 237 68.775, 237.225 69, 237.500 69 C 237.775 69, 238 68.775, 238 68.500 C 238 68.225, 237.775 68, 237.500 68 C 237.225 68, 237 68.225, 237 68.500 M 11 70.500 C 11 70.775, 11.225 71, 11.500 71 C 11.775 71, 12 70.775, 12 70.500 C 12 70.225, 11.775 70, 11.500 70 C 11.225 70, 11 70.225, 11 70.500 M 238 70.500 C 238 70.775, 238.225 71, 238.500 71 C 238.775 71, 239 70.775, 239 70.500 C 239 70.225, 238.775 70, 238.500 70 C 238.225 70, 238 70.225, 238 70.500 M 213.543 74.931 C 212.860 76.036, 214.437 77.230, 215.361 76.306 C 216.311 75.355, 216.134 74, 215.059 74 C 214.541 74, 213.859 74.419, 213.543 74.931 M 220.250 77.122 C 215.208 79.440, 214.731 81.108, 219.211 80.754 C 221.636 80.562, 222.514 80.946, 222.798 82.321 C 223.046 83.521, 222.449 84.331, 221.046 84.698 C 219.876 85.004, 219.060 85.681, 219.234 86.202 C 219.656 87.468, 220.720 87.312, 225.746 85.246 C 230.395 83.335, 231.750 80.523, 227.509 81.587 C 224.372 82.374, 222.776 79.368, 225.338 77.495 C 229.396 74.527, 226.376 74.306, 220.250 77.122 M 21.517 80.392 C 20.132 81.777, 19 83.605, 19 84.455 C 19 86.948, 22.768 90, 25.845 90 C 31.087 90, 33.944 84.017, 30.250 80.773 C 26.873 77.808, 24.217 77.692, 21.517 80.392 M 22.667 81.667 C 19.841 84.492, 25.371 89.597, 28.470 87.025 C 30.403 85.421, 30.395 84.537, 28.429 82.571 C 26.811 80.954, 23.845 80.488, 22.667 81.667 M 225.315 89.007 C 220.474 90.957, 220.313 96.491, 225.023 99.012 C 227.584 100.383, 227.767 98.291, 225.250 96.419 C 222.732 94.546, 224.812 91.500, 228.609 91.500 C 231.273 91.500, 231.479 91.762, 231.234 94.839 C 230.888 99.189, 233.371 98.639, 233.806 94.269 C 234.034 91.984, 233.526 90.781, 231.834 89.596 C 229.288 87.813, 228.464 87.739, 225.315 89.007 M 16.083 94.400 C 15.150 95.524, 15.788 96.512, 19.313 99.400 C 23.535 102.860, 26 103.892, 26 102.200 C 26 101.760, 25.535 100.935, 24.967 100.367 C 23.643 99.043, 24.786 96, 26.607 96 C 27.373 96, 28 95.325, 28 94.500 C 28 92.461, 17.763 92.376, 16.083 94.400 M 20 97 C 21.939 98.253, 23 98.253, 23 97 C 23 96.450, 21.988 96.007, 20.750 96.015 C 18.931 96.028, 18.787 96.216, 20 97 M 228.750 102.226 C 222.778 103.471, 222.387 105.454, 228.250 104.762 L 232.500 104.260 228.755 105.880 C 223.685 108.073, 223.906 109.967, 229.250 110.126 L 233.500 110.253 229.750 111.303 C 222.651 113.291, 226.614 114.808, 234.500 113.122 C 239.217 112.113, 238.309 109.597, 233 108.962 L 228.500 108.424 232.250 106.527 C 234.509 105.384, 236 103.908, 236 102.815 C 236 100.818, 235.645 100.789, 228.750 102.226 M 13.557 106.223 C 11.499 109.160, 11.593 110.593, 14 113 C 16.392 115.392, 21.245 115.613, 23.429 113.429 C 25.427 111.430, 25.452 107.620, 23.476 105.980 C 21.503 104.343, 20.335 105.494, 21.969 107.463 C 24.058 109.980, 22.442 112.169, 18.757 111.814 C 16.259 111.573, 15.426 110.976, 15.180 109.250 C 15.005 108.013, 15.342 107, 15.930 107 C 16.519 107, 17 106.325, 17 105.500 C 17 103.317, 15.349 103.664, 13.557 106.223 M 0 105.500 C 0 105.775, 0.225 106, 0.500 106 C 0.775 106, 1 105.775, 1 105.500 C 1 105.225, 0.775 105, 0.500 105 C 0.225 105, 0 105.225, 0 105.500 M 249 105.500 C 249 105.775, 249.225 106, 249.500 106 C 249.775 106, 250 105.775, 250 105.500 C 250 105.225, 249.775 105, 249.500 105 C 249.225 105, 249 105.225, 249 105.500 M 102.762 113.707 C 104.006 113.946, 105.806 113.937, 106.762 113.687 C 107.718 113.437, 106.700 113.241, 104.500 113.252 C 102.300 113.263, 101.518 113.468, 102.762 113.707 M 113.750 113.706 C 114.987 113.944, 117.013 113.944, 118.250 113.706 C 119.487 113.467, 118.475 113.272, 116 113.272 C 113.525 113.272, 112.513 113.467, 113.750 113.706 M 128.250 113.728 C 130.313 113.944, 133.688 113.944, 135.750 113.728 C 137.813 113.513, 136.125 113.336, 132 113.336 C 127.875 113.336, 126.188 113.513, 128.250 113.728 M 31.328 124.500 C 31.333 128.350, 31.513 129.802, 31.730 127.728 C 31.946 125.653, 31.943 122.503, 31.722 120.728 C 31.501 118.952, 31.324 120.650, 31.328 124.500 M 231.395 121.422 C 229.987 122.930, 231.056 125.467, 233.166 125.625 C 235.429 125.795, 236.126 122.560, 234.099 121.294 C 232.962 120.584, 232.142 120.623, 231.395 121.422 M 14.386 121.765 C 12.908 122.741, 14.099 125.500, 16 125.500 C 17.901 125.500, 19.092 122.741, 17.614 121.765 C 17.001 121.361, 16.275 121.031, 16 121.031 C 15.725 121.031, 14.999 121.361, 14.386 121.765 M 14.250 132.662 C 12.373 133.419, 12.746 135.131, 14.714 134.794 C 15.700 134.625, 16.580 135.243, 16.787 136.250 C 17.038 137.470, 16.518 138, 15.073 138 C 13.933 138, 13 138.450, 13 139 C 13 139.550, 14.012 139.994, 15.250 139.986 C 18.686 139.965, 22 138.881, 22 137.776 C 22 137.232, 21.362 137.031, 20.583 137.330 C 19.803 137.629, 18.903 137.190, 18.583 136.355 C 17.755 134.198, 17.827 134, 19.441 134 C 20.234 134, 21.160 133.550, 21.500 133 C 22.134 131.974, 16.596 131.716, 14.250 132.662 M 228 135.883 C 228 138.875, 229.779 139.956, 234.750 139.986 C 236.704 139.998, 236.986 139.507, 236.894 136.250 C 236.787 132.505, 236.786 132.504, 235.701 135.250 C 235.103 136.762, 234.251 138, 233.807 138 C 233.363 138, 232.980 136.762, 232.955 135.250 L 232.910 132.500 231.536 135.500 L 230.162 138.500 230.081 135.750 C 229.973 132.076, 228 132.202, 228 135.883 M 15.571 142.571 C 14.707 143.436, 14 144.754, 14 145.500 C 14 147.422, 16.817 150, 18.916 150 C 20.830 150, 24 147.034, 24 145.243 C 24 143.510, 21.042 141, 19 141 C 17.979 141, 16.436 141.707, 15.571 142.571 M 226.765 143.617 C 225.712 145.928, 225.845 146.456, 227.897 148.117 C 231.824 151.298, 235.248 149.982, 235.582 145.164 C 235.732 143, 235.283 142.046, 233.952 141.698 C 231.878 141.155, 231 141.732, 231 143.635 C 231 144.418, 231.638 144.692, 232.601 144.323 C 233.778 143.871, 234.107 144.208, 233.840 145.593 C 233.421 147.766, 231.174 148.433, 229 147.029 C 227.764 146.231, 227.720 145.706, 228.750 144.044 C 230.267 141.597, 230.312 141, 228.979 141 C 228.417 141, 227.420 142.178, 226.765 143.617 M 16.363 144.497 C 16.017 145.398, 16.196 146.596, 16.761 147.161 C 18.391 148.791, 21.500 147.692, 21.500 145.486 C 21.500 142.943, 17.272 142.128, 16.363 144.497 M 0 144.500 C 0 144.775, 0.225 145, 0.500 145 C 0.775 145, 1 144.775, 1 144.500 C 1 144.225, 0.775 144, 0.500 144 C 0.225 144, 0 144.225, 0 144.500 M 249 144.500 C 249 144.775, 249.225 145, 249.500 145 C 249.775 145, 250 144.775, 250 144.500 C 250 144.225, 249.775 144, 249.500 144 C 249.225 144, 249 144.225, 249 144.500 M 224.553 152.645 C 223.742 155.878, 224.470 156.655, 229.111 157.507 C 232.318 158.096, 232.792 157.909, 233.347 155.835 C 234.210 152.613, 234.155 152, 233 152 C 232.450 152, 232 152.900, 232 154 C 232 155.100, 231.387 156, 230.639 156 C 229.705 156, 229.437 155.167, 229.784 153.351 C 230.133 151.523, 229.935 150.922, 229.145 151.410 C 228.515 151.800, 228 152.766, 228 153.559 C 228 154.352, 227.501 155, 226.892 155 C 226.209 155, 226.024 154.040, 226.411 152.500 C 226.756 151.125, 226.628 150, 226.127 150 C 225.627 150, 224.918 151.190, 224.553 152.645 M 18.897 154.883 C 16.845 156.544, 16.712 157.072, 17.765 159.383 C 18.420 160.822, 19.712 162, 20.634 162 C 22.149 162, 22.134 161.805, 20.472 159.969 C 18.784 158.104, 18.765 157.806, 20.239 156.332 C 22.398 154.174, 25.404 155.347, 24.692 158.069 C 24.353 159.367, 24.585 159.972, 25.329 159.724 C 27.175 159.109, 27.255 156.398, 25.479 154.621 C 23.368 152.510, 21.747 152.575, 18.897 154.883 M 229.514 161.955 C 228.998 163.583, 228.474 163.750, 226.382 162.955 C 223.292 161.780, 222 161.744, 222 162.832 C 222 163.975, 229.289 166.126, 230.112 165.225 C 231.388 163.830, 232.137 160, 231.135 160 C 230.585 160, 229.856 160.880, 229.514 161.955 M 23.750 162.708 C 19.955 164.232, 18.383 166.648, 21.916 165.527 C 24.573 164.683, 25.730 166.993, 23.476 168.641 C 20.645 170.711, 22.378 171.287, 26.392 169.610 C 30.194 168.021, 31.417 165.817, 28 166.710 C 25.743 167.300, 25.243 165.157, 27.183 163.217 C 29.104 161.296, 27.761 161.097, 23.750 162.708 M 5 164.500 C 5 164.775, 5.225 165, 5.500 165 C 5.775 165, 6 164.775, 6 164.500 C 6 164.225, 5.775 164, 5.500 164 C 5.225 164, 5 164.225, 5 164.500 M 219 169.273 C 219 170.735, 225.465 173.449, 226.873 172.578 C 227.889 171.951, 229.091 168, 228.267 168 C 227.966 168, 227.188 168.728, 226.538 169.617 C 225.449 171.106, 225.102 171.104, 222.178 169.592 C 219.700 168.311, 219 168.241, 219 169.273 M 26.716 171.139 C 24.635 172.208, 23.198 173.512, 23.523 174.037 C 24.063 174.911, 26.979 173.767, 30.857 171.162 C 33.645 169.288, 30.355 169.270, 26.716 171.139 M 216.035 173.934 C 214.498 176.807, 214.745 177.787, 217.451 179.560 C 220.383 181.481, 223.641 180.708, 224.539 177.877 C 225.972 173.363, 218.256 169.785, 216.035 173.934 M 217.476 175.039 C 216.466 176.674, 219.511 179.402, 221.496 178.640 C 222.405 178.291, 222.997 177.217, 222.814 176.253 C 222.427 174.223, 218.528 173.336, 217.476 175.039 M 30.263 177.373 C 27.076 179.467, 26.095 181, 27.941 181 C 28.459 181, 29.160 180.550, 29.500 180 C 29.840 179.450, 30.611 179, 31.214 179 C 31.817 179, 31.565 179.823, 30.655 180.829 C 28.269 183.465, 28.611 184.312, 31.750 183.542 C 34.370 182.900, 34.405 182.939, 32.502 184.352 C 29.014 186.942, 31.686 187.286, 35.446 184.731 C 38.278 182.806, 38.768 182.052, 37.740 181.199 C 36.908 180.509, 35.900 180.452, 34.966 181.042 C 32.507 182.598, 31.593 182.107, 33.345 180.171 C 36.914 176.227, 34.854 174.356, 30.263 177.373 M 11 179.500 C 11 179.775, 11.225 180, 11.500 180 C 11.775 180, 12 179.775, 12 179.500 C 12 179.225, 11.775 179, 11.500 179 C 11.225 179, 11 179.225, 11 179.500 M 238 179.500 C 238 179.775, 238.225 180, 238.500 180 C 238.775 180, 239 179.775, 239 179.500 C 239 179.225, 238.775 179, 238.500 179 C 238.225 179, 238 179.225, 238 179.500 M 211.571 181.571 C 210.707 182.436, 210 183.561, 210 184.071 C 210 185.735, 213.951 189, 215.965 189 C 218.567 189, 220.424 185.556, 219.073 183.237 C 218.177 181.699, 218.057 181.762, 218.030 183.781 C 217.991 186.746, 215.303 187.739, 213.172 185.576 C 211.609 183.988, 211.614 183.793, 213.250 182.579 C 214.213 181.864, 215 180.992, 215 180.640 C 215 179.477, 213.168 179.975, 211.571 181.571 M 12 181.500 C 12 181.775, 12.225 182, 12.500 182 C 12.775 182, 13 181.775, 13 181.500 C 13 181.225, 12.775 181, 12.500 181 C 12.225 181, 12 181.225, 12 181.500 M 237 181.500 C 237 181.775, 237.225 182, 237.500 182 C 237.775 182, 238 181.775, 238 181.500 C 238 181.225, 237.775 181, 237.500 181 C 237.225 181, 237 181.225, 237 181.500 M 197 183 C 197 183.733, 197.300 184.033, 197.667 183.667 C 198.033 183.300, 198.033 182.700, 197.667 182.333 C 197.300 181.967, 197 182.267, 197 183 M 13 183.500 C 13 183.775, 13.225 184, 13.500 184 C 13.775 184, 14 183.775, 14 183.500 C 14 183.225, 13.775 183, 13.500 183 C 13.225 183, 13 183.225, 13 183.500 M 236 183.500 C 236 183.775, 236.225 184, 236.500 184 C 236.775 184, 237 183.775, 237 183.500 C 237 183.225, 236.775 183, 236.500 183 C 236.225 183, 236 183.225, 236 183.500 M 36.368 186.200 C 34.790 187.395, 33.313 188.513, 33.083 188.686 C 32.854 188.859, 32.932 189.265, 33.256 189.589 C 33.579 189.913, 35.489 189.061, 37.498 187.695 C 39.508 186.329, 40.721 184.945, 40.194 184.620 C 39.666 184.294, 37.945 185.005, 36.368 186.200 M 37.635 189.583 C 34.746 192.123, 34.620 194.390, 37.500 192 C 39.610 190.249, 40.419 191.348, 38.988 194.022 C 37.089 197.571, 39.225 198.101, 42.994 195.015 C 44.915 193.441, 46.155 191.822, 45.750 191.416 C 45.344 191.011, 44.050 191.539, 42.873 192.589 C 40.742 194.493, 40.737 194.491, 41.504 192 C 41.928 190.625, 42.486 188.938, 42.744 188.250 C 43.528 186.164, 40.676 186.908, 37.635 189.583 M 204.661 190.823 C 202.455 193.260, 202.562 194.240, 205.314 196.826 C 208.136 199.476, 209.204 199.537, 211.345 197.171 C 213.678 194.594, 213.409 193.320, 210.994 195.506 C 208.552 197.715, 207.430 196.934, 208.954 194.086 C 210.071 191.998, 208.736 191.001, 207.500 193 C 206.264 194.999, 204.929 194.002, 206.046 191.914 C 207.527 189.148, 206.738 188.527, 204.661 190.823 M 17 190.500 C 17 190.775, 17.225 191, 17.500 191 C 17.775 191, 18 190.775, 18 190.500 C 18 190.225, 17.775 190, 17.500 190 C 17.225 190, 17 190.225, 17 190.500 M 232 190.500 C 232 190.775, 232.225 191, 232.500 191 C 232.775 191, 233 190.775, 233 190.500 C 233 190.225, 232.775 190, 232.500 190 C 232.225 190, 232 190.225, 232 190.500 M 43.437 197.076 L 40.500 200.153 43.141 199.495 C 45.796 198.834, 48.626 200.958, 46.177 201.774 C 45.530 201.990, 45 202.848, 45 203.682 C 45 204.776, 45.952 204.406, 48.428 202.348 C 52.587 198.892, 52.874 197.743, 49.355 198.626 C 46.895 199.243, 46.757 199.105, 47.374 196.645 C 48.246 193.171, 47.040 193.303, 43.437 197.076 M 21 196.500 C 21 196.775, 21.225 197, 21.500 197 C 21.775 197, 22 196.775, 22 196.500 C 22 196.225, 21.775 196, 21.500 196 C 21.225 196, 21 196.225, 21 196.500 M 228 196.500 C 228 196.775, 228.225 197, 228.500 197 C 228.775 197, 229 196.775, 229 196.500 C 229 196.225, 228.775 196, 228.500 196 C 228.225 196, 228 196.225, 228 196.500 M 197.710 198.768 C 196.112 200.534, 196.197 200.799, 199.335 203.840 L 202.646 207.049 204.505 204.994 C 205.980 203.365, 206.168 202.376, 205.414 200.220 C 204.229 196.830, 200.158 196.063, 197.710 198.768 M 199.323 199.601 C 198.635 201.394, 201.612 204.358, 203.147 203.409 C 204.672 202.467, 204.048 200.096, 201.985 198.992 C 200.371 198.128, 199.842 198.249, 199.323 199.601 M 53.444 205.465 C 50.488 208.421, 50.428 209.173, 52.963 211.466 C 54.242 212.624, 55.548 212.978, 56.713 212.484 C 58.282 211.817, 58.205 211.647, 56.074 211.085 C 53.007 210.276, 52.457 208.686, 54.527 206.616 C 56.688 204.455, 58.077 204.579, 58.707 206.989 C 58.993 208.083, 59.627 208.730, 60.116 208.428 C 61.301 207.696, 59.486 204.401, 57.472 203.628 C 56.517 203.261, 54.919 203.990, 53.444 205.465 M 192 204.532 C 192 205.375, 192.695 207.727, 193.544 209.760 L 195.088 213.456 196.324 210.978 C 197.003 209.615, 198.108 208.444, 198.780 208.375 C 199.451 208.306, 200.338 208.191, 200.750 208.120 C 201.600 207.972, 193.907 203.079, 192.750 203.031 C 192.338 203.014, 192 203.689, 192 204.532 M 194 207 C 194 207.550, 194.450 208, 195 208 C 195.550 208, 196 207.550, 196 207 C 196 206.450, 195.550 206, 195 206 C 194.450 206, 194 206.450, 194 207 M 60.121 211.050 C 58.881 212.727, 58.035 214.605, 58.241 215.224 C 58.447 215.842, 59.646 214.901, 60.906 213.133 C 62.755 210.535, 63.469 210.145, 64.620 211.100 C 65.848 212.119, 65.826 212.616, 64.460 214.702 C 63.587 216.033, 63.049 217.648, 63.264 218.291 C 63.478 218.933, 64.458 218.231, 65.442 216.730 C 66.425 215.228, 68.137 214, 69.245 214 C 71.042 214, 71.205 214.488, 70.753 218.500 C 70.474 220.975, 70.415 223, 70.623 223 C 70.830 223, 71.827 222.213, 72.838 221.250 C 73.849 220.287, 75.536 218.921, 76.588 218.214 C 78.330 217.042, 78.255 216.977, 75.750 217.483 C 73.580 217.921, 72.997 217.665, 72.988 216.269 C 72.976 214.582, 67.148 210, 65.014 210 C 64.456 210, 64 209.550, 64 209 C 64 207.135, 62.385 207.989, 60.121 211.050 M 184.600 209.501 C 182.749 210.903, 182.762 211.030, 185.100 214.463 C 187.710 218.294, 189.497 219.140, 188.527 216.084 C 187.764 213.682, 189.609 212.430, 191.544 214.036 C 192.717 215.010, 193 214.930, 193 213.622 C 193 212.730, 192.580 212, 192.067 212 C 191.554 212, 190.849 211.100, 190.500 210 C 189.760 207.668, 187.298 207.460, 184.600 209.501 M 185.694 210.639 C 185.342 210.991, 185.282 211.647, 185.559 212.096 C 186.183 213.105, 189 212.120, 189 210.893 C 189 209.867, 186.647 209.686, 185.694 210.639 M 178.250 213.674 C 175.984 215.255, 174.995 217.739, 177.166 216.398 C 177.848 215.976, 179.281 216.869, 180.621 218.550 C 183.322 221.937, 184.881 221.275, 182.557 217.728 C 181.676 216.382, 181.238 214.543, 181.584 213.641 C 182.364 211.609, 181.194 211.621, 178.250 213.674 M 36 214.500 C 36 214.775, 36.225 215, 36.500 215 C 36.775 215, 37 214.775, 37 214.500 C 37 214.225, 36.775 214, 36.500 214 C 36.225 214, 36 214.225, 36 214.500 M 121.250 218.728 C 123.313 218.944, 126.688 218.944, 128.750 218.728 C 130.813 218.513, 129.125 218.336, 125 218.336 C 120.875 218.336, 119.188 218.513, 121.250 218.728 M 80.465 223.068 C 79.592 224.755, 79.060 226.668, 79.281 227.318 C 79.503 227.968, 80.664 226.588, 81.862 224.250 C 83.060 221.912, 83.593 220, 83.046 220 C 82.499 220, 81.337 221.381, 80.465 223.068 M 163.754 221.078 C 162.107 222.038, 162.121 222.317, 164.012 226.023 C 165.876 229.678, 166.188 229.871, 168.508 228.815 C 170.248 228.022, 171 226.882, 171 225.039 C 171 220.571, 167.711 218.773, 163.754 221.078 M 83.513 224.622 C 81.734 228.881, 81.718 229, 82.933 229 C 83.446 229, 84.196 227.988, 84.600 226.750 C 85.285 224.650, 85.391 224.717, 86.195 227.750 C 86.669 229.537, 87.411 231, 87.843 231 C 88.531 231, 92 224.712, 92 223.466 C 92 222.114, 90.163 223.299, 89.235 225.250 C 88.199 227.428, 88.142 227.396, 87.458 224.250 C 86.539 220.031, 85.386 220.140, 83.513 224.622 M 165 223.066 C 165 223.652, 165.481 225.031, 166.070 226.130 C 166.916 227.712, 167.434 227.885, 168.549 226.960 C 169.585 226.100, 169.690 225.288, 168.944 223.895 C 167.865 221.879, 165 221.277, 165 223.066 M 160.022 225.557 C 161.065 228.301, 160.264 228.211, 156.744 225.187 C 154.217 223.017, 153.684 224.214, 155.089 228.903 C 156.429 233.374, 158.636 234.669, 157.551 230.347 L 156.885 227.695 159.529 229.427 C 160.984 230.380, 162.404 230.929, 162.686 230.647 C 163.452 229.881, 160.987 223, 159.947 223 C 159.436 223, 159.468 224.102, 160.022 225.557 M 92.084 227.656 C 90.926 231.850, 91.171 232.550, 94.059 233.305 C 96.345 233.903, 100 230.991, 100 228.571 C 100 226.548, 97.200 224, 94.976 224 C 93.661 224, 92.790 225.101, 92.084 227.656 M 50 226.500 C 50 226.775, 50.225 227, 50.500 227 C 50.775 227, 51 226.775, 51 226.500 C 51 226.225, 50.775 226, 50.500 226 C 50.225 226, 50 226.225, 50 226.500 M 93.751 228.524 C 93.485 229.912, 93.701 231.315, 94.230 231.642 C 95.684 232.541, 98.359 229.378, 97.668 227.578 C 96.728 225.129, 94.287 225.718, 93.751 228.524 M 100.663 229.687 C 100.003 233.754, 101.221 236, 104.087 236 C 106.310 236, 108 233.134, 108 229.366 C 108 226.048, 106.329 227.310, 105.835 231 C 105.646 232.407, 104.844 233.500, 104 233.500 C 102.875 233.500, 102.582 232.563, 102.828 229.750 C 103.252 224.907, 101.448 224.854, 100.663 229.687 M 147.595 230.134 C 146.817 234.999, 147.298 235.845, 149.558 233.585 C 150.852 232.291, 151.521 232.187, 152.630 233.108 C 155.095 235.154, 155.312 233.241, 153.033 229.553 C 150.129 224.854, 148.409 225.038, 147.595 230.134 M 199 226.500 C 199 226.775, 199.225 227, 199.500 227 C 199.775 227, 200 226.775, 200 226.500 C 200 226.225, 199.775 226, 199.500 226 C 199.225 226, 199 226.225, 199 226.500 M 139.002 228.997 C 137.891 231.072, 137.784 231.087, 136.502 229.334 C 135.766 228.327, 134.850 227.816, 134.468 228.199 C 134.085 228.582, 134.723 230.104, 135.886 231.582 C 137.049 233.060, 138 234.911, 138 235.694 C 138 236.477, 138.457 236.835, 139.016 236.490 C 139.575 236.144, 139.806 235.495, 139.528 235.046 C 139.251 234.597, 139.521 232.805, 140.128 231.064 C 141.434 227.315, 140.661 225.896, 139.002 228.997 M 110 229.965 C 110 231.045, 110.913 232.418, 112.028 233.015 C 113.143 233.612, 113.778 234.550, 113.439 235.099 C 113.042 235.741, 112.310 235.672, 111.387 234.906 C 109.780 233.573, 108.441 234.286, 109.459 235.933 C 110.485 237.594, 114.991 237.188, 115.687 235.372 C 116.089 234.325, 115.458 233.100, 113.921 231.940 C 112.606 230.948, 111.850 229.817, 112.241 229.426 C 112.632 229.035, 113.638 229.284, 114.476 229.980 C 115.735 231.025, 116 230.963, 116 229.622 C 116 228.486, 115.101 228, 113 228 C 110.685 228, 110 228.448, 110 229.965 M 117.500 229 C 117.160 229.550, 117.584 230, 118.441 230 C 119.597 230, 120 231.049, 120 234.059 C 120 236.510, 120.396 237.873, 121 237.500 C 121.550 237.160, 122 235.334, 122 233.441 C 122 230.836, 122.425 229.996, 123.750 229.985 C 125.246 229.972, 125.282 229.828, 124 229 C 122.037 227.731, 118.284 227.731, 117.500 229 M 126.402 229.395 C 126.108 230.162, 126.050 232.524, 126.273 234.645 C 126.622 237.952, 126.790 238.180, 127.457 236.250 C 128.325 233.735, 131 233.169, 131 235.500 C 131 236.325, 131.450 237, 132 237 C 133.725 237, 133.190 229.287, 131.418 228.607 C 128.836 227.616, 126.972 227.909, 126.402 229.395 M 149 230 C 149 230.550, 149.450 231, 150 231 C 150.550 231, 151 230.550, 151 230 C 151 229.450, 150.550 229, 150 229 C 149.450 229, 149 229.450, 149 230 M 128 231 C 128 231.550, 128.675 232, 129.500 232 C 130.325 232, 131 231.550, 131 231 C 131 230.450, 130.325 230, 129.500 230 C 128.675 230, 128 230.450, 128 231 M 59 232.500 C 59 232.775, 59.225 233, 59.500 233 C 59.775 233, 60 232.775, 60 232.500 C 60 232.225, 59.775 232, 59.500 232 C 59.225 232, 59 232.225, 59 232.500 M 190 232.500 C 190 232.775, 190.225 233, 190.500 233 C 190.775 233, 191 232.775, 191 232.500 C 191 232.225, 190.775 232, 190.500 232 C 190.225 232, 190 232.225, 190 232.500 M 66 236.500 C 66 236.775, 66.225 237, 66.500 237 C 66.775 237, 67 236.775, 67 236.500 C 67 236.225, 66.775 236, 66.500 236 C 66.225 236, 66 236.225, 66 236.500 M 70 238.500 C 70 238.775, 70.225 239, 70.500 239 C 70.775 239, 71 238.775, 71 238.500 C 71 238.225, 70.775 238, 70.500 238 C 70.225 238, 70 238.225, 70 238.500 M 179 238.500 C 179 238.775, 179.225 239, 179.500 239 C 179.775 239, 180 238.775, 180 238.500 C 180 238.225, 179.775 238, 179.500 238 C 179.225 238, 179 238.225, 179 238.500 M 72 239.500 C 72 239.775, 72.225 240, 72.500 240 C 72.775 240, 73 239.775, 73 239.500 C 73 239.225, 72.775 239, 72.500 239 C 72.225 239, 72 239.225, 72 239.500 M 177 239.500 C 177 239.775, 177.225 240, 177.500 240 C 177.775 240, 178 239.775, 178 239.500 C 178 239.225, 177.775 239, 177.500 239 C 177.225 239, 177 239.225, 177 239.500 M 79 242.500 C 79 242.775, 79.225 243, 79.500 243 C 79.775 243, 80 242.775, 80 242.500 C 80 242.225, 79.775 242, 79.500 242 C 79.225 242, 79 242.225, 79 242.500 M 88 245.500 C 88 245.775, 88.225 246, 88.500 246 C 88.775 246, 89 245.775, 89 245.500 C 89 245.225, 88.775 245, 88.500 245 C 88.225 245, 88 245.225, 88 245.500 M 161 245.500 C 161 245.775, 161.225 246, 161.500 246 C 161.775 246, 162 245.775, 162 245.500 C 162 245.225, 161.775 245, 161.500 245 C 161.225 245, 161 245.225, 161 245.500 M 100 248.500 C 100 248.775, 100.225 249, 100.500 249 C 100.775 249, 101 248.775, 101 248.500 C 101 248.225, 100.775 248, 100.500 248 C 100.225 248, 100 248.225, 100 248.500 M 149 248.500 C 149 248.775, 149.225 249, 149.500 249 C 149.775 249, 150 248.775, 150 248.500 C 150 248.225, 149.775 248, 149.500 248 C 149.225 248, 149 248.225, 149 248.500" stroke="none" fill="#db757d" fill-rule="evenodd"/><path d="M 100.493 0.989 C 100.842 1.554, 100.444 1.724, 99.564 1.386 C 97.287 0.512, 87.874 2.987, 88.657 4.254 C 89.035 4.865, 88.832 5.014, 88.175 4.608 C 86.595 3.632, 78.924 6.068, 79.687 7.303 C 80.029 7.856, 79.836 8.017, 79.258 7.659 C 77.913 6.828, 71.721 9.388, 72.703 10.370 C 73.108 10.774, 72.591 10.780, 71.555 10.383 C 70.144 9.841, 69.877 9.992, 70.490 10.985 C 71.010 11.826, 70.921 12.069, 70.245 11.651 C 68.821 10.772, 65.861 11.966, 66.580 13.130 C 66.893 13.636, 66.778 13.931, 66.324 13.787 C 65.016 13.370, 58.978 16.155, 59.469 16.949 C 59.713 17.344, 59.334 17.667, 58.628 17.667 C 53.012 17.667, 19.197 50.204, 21.530 53.363 C 21.788 53.713, 21.696 53.771, 21.325 53.492 C 20.353 52.760, 16.999 58.189, 17.711 59.342 C 18.040 59.874, 17.850 60.025, 17.289 59.679 C 15.844 58.786, 7.837 75.463, 3.616 88.157 L 0.072 98.814 0.100 125.157 C 0.126 149.682, 0.282 151.968, 2.361 158.286 C 3.590 162.018, 4.935 164.732, 5.350 164.317 C 5.766 163.901, 5.840 164.254, 5.514 165.102 C 4.420 167.954, 15.779 191.806, 17.492 190.252 C 17.948 189.838, 17.999 190.059, 17.606 190.742 C 17.192 191.462, 17.946 193.037, 19.401 194.492 C 20.780 195.871, 21.674 197, 21.386 197 C 20.532 197, 25.131 203.108, 30.422 209 C 39.539 219.153, 55.472 232.333, 58.628 232.333 C 59.334 232.333, 59.713 232.656, 59.469 233.051 C 58.978 233.845, 65.016 236.630, 66.324 236.213 C 66.778 236.069, 66.893 236.364, 66.580 236.870 C 65.861 238.034, 68.821 239.228, 70.245 238.349 C 70.921 237.931, 71.010 238.174, 70.490 239.015 C 69.877 240.008, 70.144 240.159, 71.555 239.617 C 72.591 239.220, 73.108 239.226, 72.703 239.630 C 71.721 240.612, 77.913 243.172, 79.258 242.341 C 79.842 241.979, 80.016 242.166, 79.648 242.760 C 78.830 244.084, 91.972 248.346, 97.150 248.436 C 99.158 248.471, 100.594 248.838, 100.341 249.250 C 100.089 249.662, 111.185 250, 125 250 C 139.768 250, 149.887 249.626, 149.558 249.093 C 149.249 248.595, 149.909 248.425, 151.023 248.716 C 153.792 249.440, 162.128 247.017, 161.327 245.721 C 160.947 245.105, 161.185 244.996, 161.919 245.450 C 163.359 246.340, 178.094 240.961, 177.380 239.806 C 177.114 239.375, 177.668 239.319, 178.612 239.681 C 179.868 240.164, 180.109 239.985, 179.510 239.015 C 178.968 238.140, 179.078 237.930, 179.831 238.396 C 180.999 239.118, 190 234.405, 190 233.072 C 190 232.666, 190.597 232.333, 191.328 232.333 C 194.663 232.333, 210.976 218.747, 219.944 208.500 C 225.746 201.870, 229.417 197, 228.614 197 C 228.326 197, 229.220 195.871, 230.599 194.492 C 231.983 193.108, 232.790 191.469, 232.399 190.837 C 231.996 190.184, 232.130 189.962, 232.711 190.321 C 233.894 191.053, 241.884 175.380, 244.855 166.500 C 245.960 163.200, 247.784 158.475, 248.910 156 C 251.236 150.884, 251.785 143.439, 249.750 144.588 C 248.750 145.152, 248.750 145.024, 249.750 143.947 C 251.556 142.001, 251.556 104.568, 249.750 105.588 C 248.750 106.152, 248.750 106.024, 249.750 104.947 C 250.438 104.206, 250.993 101.778, 250.985 99.550 C 250.976 97.207, 250.639 96.020, 250.186 96.734 C 249.707 97.488, 248.151 94.019, 246.184 87.811 C 242.424 75.944, 234.195 58.761, 232.711 59.679 C 232.150 60.025, 231.983 59.836, 232.341 59.258 C 233.086 58.053, 225.891 47.861, 219.106 40.509 C 212.103 32.921, 200.811 22.999, 199.852 23.591 C 199.383 23.881, 199 23.701, 199 23.192 C 199 22.080, 191.007 16.639, 190.985 17.736 C 190.976 18.156, 190.639 17.998, 190.235 17.385 C 189.180 15.785, 178.003 9.644, 177.985 10.655 C 177.976 11.120, 177.639 11.005, 177.235 10.401 C 176.105 8.710, 163.093 3.824, 161.819 4.612 C 161.167 5.015, 160.967 4.863, 161.343 4.254 C 162.126 2.987, 152.713 0.512, 150.436 1.386 C 149.556 1.724, 149.158 1.554, 149.507 0.989 C 149.903 0.347, 141.297 -0, 125 -0 C 108.703 -0, 100.097 0.347, 100.493 0.989 M 103 5.544 C 53.827 14.490, 14.059 54.581, 5.463 103.871 C 3.586 114.634, 3.586 135.366, 5.463 146.129 C 14.126 195.807, 54.193 235.874, 103.871 244.537 C 114.634 246.414, 135.366 246.414, 146.129 244.537 C 195.847 235.867, 235.867 195.847, 244.537 146.129 C 246.414 135.366, 246.414 114.634, 244.537 103.871 C 235.874 54.193, 195.807 14.126, 146.129 5.463 C 135.735 3.651, 113.174 3.693, 103 5.544 M 104.729 6.512 C 78.738 10.881, 54.684 24.092, 36.226 44.135 C 32.910 47.735, 32.297 48.900, 33.479 49.353 C 34.315 49.675, 35 50.417, 35 51.004 C 35 51.746, 34.416 51.758, 33.079 51.042 C 31.466 50.179, 30.691 50.615, 28.252 53.757 C 2.073 87.492, -2.489 138.928, 17.231 178 C 24.907 193.208, 33.249 204.043, 46.126 215.533 C 81.078 246.720, 133.960 253.991, 176.500 233.459 C 192.133 225.914, 203.650 217.193, 215.465 203.951 C 238.778 177.823, 249.275 140.905, 243.504 105.328 C 235.334 54.951, 195.049 14.666, 144.672 6.496 C 133.657 4.709, 115.406 4.717, 104.729 6.512 M 112.557 14.223 C 110.522 17.128, 110.591 19.273, 112.807 22.010 C 114.364 23.933, 115.193 24.143, 118.807 23.533 C 122.394 22.927, 123 22.471, 123 20.381 C 123 17.649, 120.898 16.395, 118.250 17.548 C 116.600 18.266, 116.604 18.334, 118.305 18.739 C 120.881 19.351, 119.800 21.500, 116.917 21.500 C 114.821 21.500, 114.500 21.034, 114.500 18 C 114.500 14.583, 114.589 14.505, 118.250 14.720 C 122.052 14.943, 123.311 13.717, 120.418 12.607 C 117.255 11.393, 114.082 12.045, 112.557 14.223 M 130.500 13 C 130.840 13.550, 131.829 14, 132.698 14 C 134.007 14, 134.177 14.860, 133.686 19 C 133.215 22.977, 133.391 24, 134.547 24 C 135.607 24, 136 22.757, 136 19.406 C 136 15.654, 136.366 14.717, 138 14.290 C 141.756 13.308, 140.009 12, 134.941 12 C 131.823 12, 130.119 12.384, 130.500 13 M 105.511 16.750 L 106.113 20.500 103.234 17.250 C 98.934 12.397, 97.668 12.933, 98.520 19.250 C 99.306 25.071, 99.661 26, 101.104 26 C 101.684 26, 101.843 24.456, 101.489 22.250 L 100.887 18.500 103.766 21.750 C 108.066 26.603, 109.332 26.067, 108.480 19.750 C 107.694 13.929, 107.339 13, 105.896 13 C 105.316 13, 105.157 14.544, 105.511 16.750 M 143.677 13.750 C 143.434 14.162, 142.924 16.075, 142.543 18 C 142.162 19.925, 141.629 22.288, 141.358 23.250 C 141.039 24.382, 141.419 25, 142.433 25 C 143.317 25, 144 24.155, 144 23.059 C 144 20.672, 145.280 19.787, 147.499 20.638 C 148.631 21.072, 149.030 22.061, 148.724 23.665 C 148.473 24.976, 148.659 26.289, 149.136 26.584 C 150.138 27.204, 151.423 24.125, 152.405 18.750 C 152.956 15.739, 152.786 15, 151.545 15 C 150.641 15, 150 15.873, 150 17.107 C 150 18.617, 149.552 19.042, 148.418 18.607 C 147.548 18.273, 146.415 18, 145.899 18 C 145.384 18, 145.244 16.875, 145.589 15.500 C 146.168 13.194, 144.761 11.907, 143.677 13.750 M 86.667 14.667 C 85.399 15.935, 86.002 17.243, 87.342 16.131 C 88.080 15.519, 88.980 15.313, 89.342 15.675 C 89.704 16.037, 90 15.808, 90 15.167 C 90 13.910, 87.759 13.574, 86.667 14.667 M 85.913 19.087 C 83.416 21.584, 83.964 25.552, 87.182 28.273 C 90.649 31.205, 96 28.672, 96 24.100 C 96 17.806, 90.118 14.882, 85.913 19.087 M 155.639 21.545 C 154.173 25.849, 154.194 26.194, 156.045 28.045 C 159.555 31.555, 162.912 30.346, 164.496 25 C 164.903 23.625, 165.931 21.710, 166.779 20.744 C 168.683 18.576, 168.176 17.977, 165.344 19.049 C 164.078 19.529, 162.917 21.102, 162.530 22.864 C 161.735 26.484, 159.925 28.190, 158.085 27.053 C 156.965 26.360, 157.002 25.441, 158.308 21.610 C 159.586 17.859, 159.628 17, 158.533 17 C 157.793 17, 156.491 19.045, 155.639 21.545 M 88.250 19.662 C 85.371 20.824, 87.265 27, 90.500 27 C 93.047 27, 94.274 24.912, 93.292 22.250 C 92.264 19.466, 90.712 18.669, 88.250 19.662 M 74.223 23.557 C 69.945 26.553, 72.681 35, 77.929 35 C 80.500 35, 83.001 32.373, 82.995 29.679 C 82.990 27.659, 82.808 27.719, 80.499 30.500 L 78.008 33.500 75.962 31.087 C 73.119 27.735, 73.802 25.569, 77.824 25.182 C 80.566 24.918, 80.928 24.618, 79.943 23.432 C 78.417 21.592, 76.982 21.624, 74.223 23.557 M 169.153 23.750 C 165.961 26.451, 165.424 30.424, 167.913 32.913 C 169.061 34.061, 170.900 35, 172 35 C 174.523 35, 178 31.594, 178 29.122 C 178 28.090, 178.670 26.689, 179.489 26.009 C 180.308 25.329, 180.702 24.326, 180.364 23.780 C 179.983 23.163, 179.460 23.256, 178.984 24.026 C 178.393 24.982, 177.685 24.893, 175.886 23.633 C 172.925 21.559, 171.718 21.580, 169.153 23.750 M 170.238 26.162 C 168.467 27.933, 168.710 31.675, 170.645 32.417 C 172.851 33.264, 176.163 30.136, 175.794 27.555 C 175.454 25.176, 172.072 24.328, 170.238 26.162 M 179.554 31.915 C 178.149 34.140, 177 36.419, 177 36.980 C 177 38.139, 178.988 38.404, 179.022 37.250 C 179.034 36.837, 179.929 35.375, 181.011 34 L 182.977 31.500 182.738 36.392 C 182.422 42.891, 184.156 43.296, 187.545 37.513 C 190.684 32.158, 190.011 30.220, 186.514 34.539 L 184.117 37.500 184.308 33.108 C 184.562 27.287, 182.760 26.835, 179.554 31.915 M 104.965 30.882 C 67.152 39.129, 37.617 69.511, 30.459 107.525 C 28.269 119.151, 28.901 138.116, 31.846 149.198 C 40.664 182.380, 67.184 208.932, 100.802 218.240 C 112.015 221.344, 138.024 221.332, 149.284 218.218 C 182.829 208.938, 208.934 182.809, 218.240 149.198 C 221.332 138.028, 221.332 111.972, 218.240 100.802 C 208.933 67.187, 182.441 40.723, 149.198 31.833 C 137.991 28.836, 116.467 28.373, 104.965 30.882 M 108.342 31.412 C 71.721 38.403, 42.672 65.371, 32.844 101.500 C 29.705 113.042, 29.705 136.958, 32.844 148.500 C 41.949 181.972, 68.028 208.051, 101.500 217.156 C 108.107 218.953, 112.200 219.332, 125 219.332 C 137.800 219.332, 141.893 218.953, 148.500 217.156 C 181.972 208.051, 208.051 181.972, 217.156 148.500 C 220.295 136.958, 220.295 113.042, 217.156 101.500 C 214.570 91.996, 208.765 79.504, 202.886 70.794 C 191.044 53.252, 169.861 38.505, 148.500 32.934 C 138.177 30.241, 118.399 29.492, 108.342 31.412 M 57.061 33.939 C 54.327 36.673, 54.458 39.549, 57.455 42.545 C 60.432 45.523, 62.361 45.639, 65 43 C 66.100 41.900, 67.450 41, 68 41 C 69.445 41, 69.240 40.121, 67.188 37.512 C 65.821 35.774, 64.963 35.441, 63.688 36.154 C 61.557 37.347, 61.459 39.421, 63.573 38.610 C 64.686 38.183, 65.048 38.514, 64.811 39.742 C 64.397 41.892, 61.397 42.574, 59.452 40.960 C 57.674 39.485, 57.527 35.044, 59.250 34.885 C 59.938 34.821, 61.057 34.709, 61.739 34.635 C 63.913 34.398, 63.584 32.512, 61.311 32.189 C 60.092 32.015, 58.210 32.790, 57.061 33.939 M 106 33.522 C 94.452 35.892, 78.087 42.790, 72 47.854 L 69.500 49.933 78.020 49.967 C 86.848 50.001, 96.296 52.072, 105.539 55.997 C 111.912 58.704, 125 66.144, 125 67.060 C 125 67.447, 122.956 69.093, 120.458 70.718 L 115.916 73.672 107.708 69.422 C 95.842 63.277, 88.333 61, 79.933 61 C 66.684 61, 61.729 65.523, 61.149 78.146 C 60.700 87.920, 62.363 93.668, 70.009 108.760 C 75.978 120.544, 84.930 133, 87.429 133 C 90.225 133, 91.030 120.916, 88.477 117.270 C 87.090 115.290, 87.115 115.009, 88.754 114.132 C 91.226 112.809, 121.346 113.538, 121.811 114.932 C 122.006 115.519, 121.454 116.272, 120.583 116.606 C 118.314 117.477, 118.325 130.597, 120.598 133.108 C 123.384 136.187, 121.368 136.910, 109.969 136.920 C 99.728 136.929, 99 136.800, 99 134.965 C 99 133.884, 99.450 133, 100 133 C 100.550 133, 101 131.425, 101 129.500 C 101 126.278, 100.762 126, 98 126 C 95.345 126, 95 126.339, 95 128.950 C 95 130.655, 95.698 132.291, 96.654 132.827 C 99.403 134.365, 97.501 136.840, 93.306 137.186 L 89.500 137.500 98 146.351 C 102.675 151.218, 110.100 158.160, 114.500 161.777 C 118.900 165.393, 123.128 168.916, 123.895 169.606 C 125.056 170.651, 124.494 171.365, 120.521 173.885 L 115.753 176.908 110.126 172.336 C 95.124 160.145, 80.720 144.911, 72.717 132.772 C 69.914 128.522, 67.420 125.246, 67.174 125.492 C 66.338 126.328, 55.212 103.534, 53.023 96.500 C 51.748 92.404, 50.606 85.404, 50.270 79.626 L 49.696 69.752 47.817 72.126 C 44.523 76.291, 37.166 92.255, 35.152 99.611 C 34.081 103.522, 32.624 110.823, 31.914 115.836 C 30.786 123.806, 30.842 126.403, 32.354 136.521 C 34.838 153.135, 41.940 171.287, 48.817 178.594 C 49.901 179.746, 51.476 181.996, 52.317 183.594 C 56.341 191.241, 75.074 205.341, 88.841 211.085 C 97.324 214.624, 116.745 218.916, 124.500 218.965 C 131.954 219.012, 150.457 215.229, 159.144 211.882 C 165.531 209.421, 177.320 202.829, 180.287 200.061 C 180.719 199.657, 177.488 199.534, 173.105 199.788 C 162.086 200.426, 153.543 198.122, 137.871 190.286 C 130.792 186.746, 125 183.493, 125 183.058 C 125 182.139, 132.518 177, 133.863 177 C 134.361 177, 138.308 178.757, 142.634 180.904 C 154.034 186.563, 159.487 188.212, 168.601 188.753 C 178.441 189.339, 182.895 187.626, 186.772 181.768 C 192.023 173.834, 189.521 158.217, 180.207 140.789 C 176.394 133.653, 176.409 133.134, 180.583 127.522 C 182.807 124.532, 184.854 126.442, 189.781 136.104 C 196.875 150.015, 199.338 158.851, 199.425 170.701 L 199.500 180.902 201.726 178.201 C 205.395 173.749, 212.771 158.046, 215.207 149.500 C 218.296 138.665, 218.533 112.387, 215.640 101.500 C 213.375 92.977, 207.525 80.140, 202.342 72.319 C 197.727 65.353, 186.573 53.317, 183.969 52.490 C 182.942 52.164, 180.743 50.628, 179.081 49.076 C 172.623 43.043, 154.661 35.370, 141.566 33.051 C 133.530 31.627, 113.969 31.886, 106 33.522 M 191.695 38.111 C 188.735 39.833, 187.692 43.880, 189.496 46.635 C 190.349 47.936, 191.673 49, 192.440 49 C 193.206 49, 194.031 49.563, 194.272 50.250 C 194.558 51.066, 195.427 50.632, 196.775 49 C 198.652 46.727, 198.699 46.343, 197.286 44.774 C 195.399 42.676, 193.375 43.542, 195.154 45.685 C 196.217 46.967, 196.039 47.140, 193.962 46.846 C 190.923 46.415, 190.236 43.502, 192.567 40.926 C 194.940 38.304, 196.862 38.508, 198 41.500 C 199.041 44.237, 201 44.890, 201 42.500 C 201 40.436, 197.381 36.993, 195.250 37.030 C 194.287 37.047, 192.688 37.533, 191.695 38.111 M 49 40.865 C 49 41.341, 49.933 42.916, 51.073 44.365 C 53.436 47.370, 53.412 47.388, 49.137 45.898 C 47.398 45.292, 45.227 45.082, 44.314 45.433 C 42.946 45.958, 43.420 46.852, 46.992 50.492 C 49.379 52.924, 51.744 54.658, 52.248 54.347 C 52.752 54.035, 51.918 52.480, 50.395 50.890 C 47.395 47.759, 47.933 47.384, 52.927 49.124 C 57.966 50.881, 58.542 48.993, 54.431 44.191 C 51.020 40.206, 49 38.969, 49 40.865 M 208.091 50.610 C 209.248 52.004, 208.918 52.687, 205.634 55.697 C 203.547 57.609, 202.123 59.456, 202.468 59.801 C 202.813 60.147, 203.686 59.995, 204.408 59.465 C 210.319 55.117, 211.042 54.790, 212.347 55.873 C 213.082 56.483, 213.957 56.709, 214.292 56.375 C 215.175 55.492, 209.749 49, 208.128 49 C 206.979 49, 206.973 49.263, 208.091 50.610 M 34.750 52.167 C 33.269 53.718, 33.236 54, 34.531 54 C 35.374 54, 36.329 53.306, 36.655 52.457 C 37.522 50.196, 36.744 50.078, 34.750 52.167 M 69.333 51.667 C 69.700 52.033, 70.300 52.033, 70.667 51.667 C 71.033 51.300, 70.733 51, 70 51 C 69.267 51, 68.967 51.300, 69.333 51.667 M 66.333 52.667 C 66.700 53.033, 67.300 53.033, 67.667 52.667 C 68.033 52.300, 67.733 52, 67 52 C 66.267 52, 65.967 52.300, 66.333 52.667 M 36.534 53.945 C 35.762 55.195, 41.926 65.163, 43.045 64.472 C 43.522 64.177, 43.657 63.270, 43.344 62.455 C 42.620 60.568, 44.799 57.892, 46.780 58.237 C 47.612 58.382, 48.454 58.044, 48.651 57.486 C 48.848 56.929, 46.809 55.691, 44.120 54.736 C 38.524 52.749, 37.349 52.626, 36.534 53.945 M 40.150 56.950 C 40.580 58.239, 41.951 58.471, 42.075 57.275 C 42.116 56.876, 41.610 56.370, 40.950 56.150 C 40.290 55.930, 39.930 56.290, 40.150 56.950 M 211.701 62.162 C 208.478 64.270, 207.232 65.632, 207.908 66.308 C 208.584 66.984, 209.372 66.936, 210.306 66.161 C 211.390 65.262, 212.095 65.448, 213.503 67.004 C 215.675 69.404, 218.282 69.571, 220.064 67.423 C 221.155 66.109, 221.066 65.278, 219.529 62.423 C 218.515 60.540, 217.418 59.005, 217.093 59.012 C 216.767 59.018, 214.340 60.436, 211.701 62.162 M 29.073 64.635 C 26.291 68.171, 26.450 69.119, 30.257 71.695 C 35.526 75.262, 36.387 75.307, 38.273 72.115 C 40.546 68.266, 40.461 67.370, 37.545 64.455 C 34.377 61.286, 31.661 61.344, 29.073 64.635 M 214.992 63.005 C 213.690 63.810, 213.718 64.146, 215.213 65.641 C 216.831 67.260, 216.964 67.258, 217.596 65.610 C 218.466 63.342, 216.931 61.807, 214.992 63.005 M 30.345 66.543 C 29.511 68.717, 30.669 69.520, 32.476 68.020 C 33.758 66.956, 34 67.083, 34 68.819 C 34 71.675, 35.690 72.448, 36.918 70.154 C 37.699 68.694, 37.518 67.873, 36.139 66.626 C 33.871 64.574, 31.116 64.534, 30.345 66.543 M 13 66.500 C 13 66.775, 13.225 67, 13.500 67 C 13.775 67, 14 66.775, 14 66.500 C 14 66.225, 13.775 66, 13.500 66 C 13.225 66, 13 66.225, 13 66.500 M 52 66.500 C 52 66.775, 52.225 67, 52.500 67 C 52.775 67, 53 66.775, 53 66.500 C 53 66.225, 52.775 66, 52.500 66 C 52.225 66, 52 66.225, 52 66.500 M 236 66.500 C 236 66.775, 236.225 67, 236.500 67 C 236.775 67, 237 66.775, 237 66.500 C 237 66.225, 236.775 66, 236.500 66 C 236.225 66, 236 66.225, 236 66.500 M 12 68.500 C 12 68.775, 12.225 69, 12.500 69 C 12.775 69, 13 68.775, 13 68.500 C 13 68.225, 12.775 68, 12.500 68 C 12.225 68, 12 68.225, 12 68.500 M 237 68.500 C 237 68.775, 237.225 69, 237.500 69 C 237.775 69, 238 68.775, 238 68.500 C 238 68.225, 237.775 68, 237.500 68 C 237.225 68, 237 68.225, 237 68.500 M 11 70.500 C 11 70.775, 11.225 71, 11.500 71 C 11.775 71, 12 70.775, 12 70.500 C 12 70.225, 11.775 70, 11.500 70 C 11.225 70, 11 70.225, 11 70.500 M 238 70.500 C 238 70.775, 238.225 71, 238.500 71 C 238.775 71, 239 70.775, 239 70.500 C 239 70.225, 238.775 70, 238.500 70 C 238.225 70, 238 70.225, 238 70.500 M 128.732 76.536 C 126.679 77.931, 125 79.227, 125 79.416 C 125 79.605, 127.588 81.705, 130.750 84.084 C 139.263 90.486, 156.306 107.343, 163.768 116.743 C 170.872 125.691, 171.091 125.741, 174.757 119.219 L 176.946 115.324 171.294 108.412 C 160.132 94.763, 137.653 74, 134.038 74 C 133.172 74, 130.785 75.141, 128.732 76.536 M 213.543 74.931 C 212.860 76.036, 214.437 77.230, 215.361 76.306 C 216.311 75.355, 216.134 74, 215.059 74 C 214.541 74, 213.859 74.419, 213.543 74.931 M 220.250 77.122 C 215.208 79.440, 214.731 81.108, 219.211 80.754 C 221.636 80.562, 222.514 80.946, 222.798 82.321 C 223.046 83.521, 222.449 84.331, 221.046 84.698 C 219.876 85.004, 219.060 85.681, 219.234 86.202 C 219.656 87.468, 220.720 87.312, 225.746 85.246 C 230.395 83.335, 231.750 80.523, 227.509 81.587 C 224.372 82.374, 222.776 79.368, 225.338 77.495 C 229.396 74.527, 226.376 74.306, 220.250 77.122 M 21.517 80.392 C 20.132 81.777, 19 83.605, 19 84.455 C 19 86.948, 22.768 90, 25.845 90 C 31.087 90, 33.944 84.017, 30.250 80.773 C 26.873 77.808, 24.217 77.692, 21.517 80.392 M 22.667 81.667 C 19.841 84.492, 25.371 89.597, 28.470 87.025 C 30.403 85.421, 30.395 84.537, 28.429 82.571 C 26.811 80.954, 23.845 80.488, 22.667 81.667 M 225.315 89.007 C 220.474 90.957, 220.313 96.491, 225.023 99.012 C 227.584 100.383, 227.767 98.291, 225.250 96.419 C 222.732 94.546, 224.812 91.500, 228.609 91.500 C 231.273 91.500, 231.479 91.762, 231.234 94.839 C 230.888 99.189, 233.371 98.639, 233.806 94.269 C 234.034 91.984, 233.526 90.781, 231.834 89.596 C 229.288 87.813, 228.464 87.739, 225.315 89.007 M 16.083 94.400 C 15.150 95.524, 15.788 96.512, 19.313 99.400 C 23.535 102.860, 26 103.892, 26 102.200 C 26 101.760, 25.535 100.935, 24.967 100.367 C 23.643 99.043, 24.786 96, 26.607 96 C 27.373 96, 28 95.325, 28 94.500 C 28 92.461, 17.763 92.376, 16.083 94.400 M 20 97 C 21.939 98.253, 23 98.253, 23 97 C 23 96.450, 21.988 96.007, 20.750 96.015 C 18.931 96.028, 18.787 96.216, 20 97 M 0.272 101 C 0.272 103.475, 0.467 104.487, 0.706 103.250 C 0.944 102.013, 0.944 99.987, 0.706 98.750 C 0.467 97.513, 0.272 98.525, 0.272 101 M 228.750 102.226 C 222.778 103.471, 222.387 105.454, 228.250 104.762 L 232.500 104.260 228.755 105.880 C 223.685 108.073, 223.906 109.967, 229.250 110.126 L 233.500 110.253 229.750 111.303 C 222.651 113.291, 226.614 114.808, 234.500 113.122 C 239.217 112.113, 238.309 109.597, 233 108.962 L 228.500 108.424 232.250 106.527 C 234.509 105.384, 236 103.908, 236 102.815 C 236 100.818, 235.645 100.789, 228.750 102.226 M 13.557 106.223 C 11.499 109.160, 11.593 110.593, 14 113 C 16.392 115.392, 21.245 115.613, 23.429 113.429 C 25.427 111.430, 25.452 107.620, 23.476 105.980 C 21.503 104.343, 20.335 105.494, 21.969 107.463 C 24.058 109.980, 22.442 112.169, 18.757 111.814 C 16.259 111.573, 15.426 110.976, 15.180 109.250 C 15.005 108.013, 15.342 107, 15.930 107 C 16.519 107, 17 106.325, 17 105.500 C 17 103.317, 15.349 103.664, 13.557 106.223 M 0.419 125 C 0.419 135.725, 0.566 140.113, 0.746 134.750 C 0.925 129.387, 0.925 120.612, 0.746 115.250 C 0.566 109.888, 0.419 114.275, 0.419 125 M 149.388 112.956 C 145.440 114.596, 143 118.886, 143 124.185 C 143 132.697, 146.478 137, 153.358 137 C 158.921 137, 165.361 130.577, 161.926 128.454 C 161.335 128.089, 159.873 128.671, 158.676 129.746 C 155.296 132.785, 154.191 133.173, 152.102 132.055 C 148.193 129.962, 148.190 119.039, 152.099 116.947 C 153.813 116.030, 154.618 116.423, 157.525 119.597 C 160.296 122.622, 161.056 123.019, 161.560 121.703 C 161.902 120.812, 161.656 118.489, 161.014 116.541 C 160.155 113.940, 159.268 112.996, 157.672 112.986 C 156.478 112.979, 154.600 112.771, 153.500 112.526 C 152.400 112.280, 150.550 112.473, 149.388 112.956 M 122.398 116.685 C 121.486 121.554, 122.770 122.529, 125.840 119.299 L 128.500 116.500 128.798 123.978 C 129.041 130.049, 128.782 131.686, 127.423 132.680 C 124.340 134.935, 126.484 137, 131.910 137 C 137.467 137, 138.982 135.742, 136.598 133.108 C 135.439 131.827, 135 129.322, 135 123.984 L 135 116.626 137.970 119.472 C 140.488 121.883, 141.036 122.069, 141.565 120.692 C 141.908 119.798, 141.799 117.898, 141.324 116.472 C 140.488 113.964, 140.166 113.871, 131.727 113.689 L 122.995 113.500 122.398 116.685 M 96.494 117.007 C 94.249 119.487, 95.243 122, 98.469 122 C 100.362 122, 101 121.478, 101 119.929 C 101 118.789, 100.377 117.234, 99.615 116.472 C 98.436 115.293, 97.973 115.372, 96.494 117.007 M 109.250 116.731 C 108.391 117.030, 108 119.663, 108 125.153 C 108 132.863, 108.078 133.128, 110.250 132.820 C 112.328 132.524, 112.522 131.918, 112.790 124.872 C 113.082 117.193, 112.403 115.631, 109.250 116.731 M 231.395 121.422 C 229.987 122.930, 231.056 125.467, 233.166 125.625 C 235.429 125.795, 236.126 122.560, 234.099 121.294 C 232.962 120.584, 232.142 120.623, 231.395 121.422 M 14.386 121.765 C 12.908 122.741, 14.099 125.500, 16 125.500 C 17.901 125.500, 19.092 122.741, 17.614 121.765 C 17.001 121.361, 16.275 121.031, 16 121.031 C 15.725 121.031, 14.999 121.361, 14.386 121.765 M 14.250 132.662 C 12.373 133.419, 12.746 135.131, 14.714 134.794 C 15.700 134.625, 16.580 135.243, 16.787 136.250 C 17.038 137.470, 16.518 138, 15.073 138 C 13.933 138, 13 138.450, 13 139 C 13 139.550, 14.012 139.994, 15.250 139.986 C 18.686 139.965, 22 138.881, 22 137.776 C 22 137.232, 21.362 137.031, 20.583 137.330 C 19.803 137.629, 18.903 137.190, 18.583 136.355 C 17.755 134.198, 17.827 134, 19.441 134 C 20.234 134, 21.160 133.550, 21.500 133 C 22.134 131.974, 16.596 131.716, 14.250 132.662 M 228 135.883 C 228 138.875, 229.779 139.956, 234.750 139.986 C 236.704 139.998, 236.986 139.507, 236.894 136.250 C 236.787 132.505, 236.786 132.504, 235.701 135.250 C 235.103 136.762, 234.251 138, 233.807 138 C 233.363 138, 232.980 136.762, 232.955 135.250 L 232.910 132.500 231.536 135.500 L 230.162 138.500 230.081 135.750 C 229.973 132.076, 228 132.202, 228 135.883 M 15.571 142.571 C 14.707 143.436, 14 144.754, 14 145.500 C 14 147.422, 16.817 150, 18.916 150 C 20.830 150, 24 147.034, 24 145.243 C 24 143.510, 21.042 141, 19 141 C 17.979 141, 16.436 141.707, 15.571 142.571 M 226.765 143.617 C 225.712 145.928, 225.845 146.456, 227.897 148.117 C 231.824 151.298, 235.248 149.982, 235.582 145.164 C 235.732 143, 235.283 142.046, 233.952 141.698 C 231.878 141.155, 231 141.732, 231 143.635 C 231 144.418, 231.638 144.692, 232.601 144.323 C 233.778 143.871, 234.107 144.208, 233.840 145.593 C 233.421 147.766, 231.174 148.433, 229 147.029 C 227.764 146.231, 227.720 145.706, 228.750 144.044 C 230.267 141.597, 230.312 141, 228.979 141 C 228.417 141, 227.420 142.178, 226.765 143.617 M 16.363 144.497 C 16.017 145.398, 16.196 146.596, 16.761 147.161 C 18.391 148.791, 21.500 147.692, 21.500 145.486 C 21.500 142.943, 17.272 142.128, 16.363 144.497 M 0.272 149 C 0.272 151.475, 0.467 152.488, 0.706 151.250 C 0.944 150.012, 0.944 147.988, 0.706 146.750 C 0.467 145.512, 0.272 146.525, 0.272 149 M 224.553 152.645 C 223.742 155.878, 224.470 156.655, 229.111 157.507 C 232.318 158.096, 232.792 157.909, 233.347 155.835 C 234.210 152.613, 234.155 152, 233 152 C 232.450 152, 232 152.900, 232 154 C 232 155.100, 231.387 156, 230.639 156 C 229.705 156, 229.437 155.167, 229.784 153.351 C 230.133 151.523, 229.935 150.922, 229.145 151.410 C 228.515 151.800, 228 152.766, 228 153.559 C 228 154.352, 227.501 155, 226.892 155 C 226.209 155, 226.024 154.040, 226.411 152.500 C 226.756 151.125, 226.628 150, 226.127 150 C 225.627 150, 224.918 151.190, 224.553 152.645 M 18.897 154.883 C 16.845 156.544, 16.712 157.072, 17.765 159.383 C 18.420 160.822, 19.712 162, 20.634 162 C 22.149 162, 22.134 161.805, 20.472 159.969 C 18.784 158.104, 18.765 157.806, 20.239 156.332 C 22.398 154.174, 25.404 155.347, 24.692 158.069 C 24.353 159.367, 24.585 159.972, 25.329 159.724 C 27.175 159.109, 27.255 156.398, 25.479 154.621 C 23.368 152.510, 21.747 152.575, 18.897 154.883 M 229.514 161.955 C 228.998 163.583, 228.474 163.750, 226.382 162.955 C 223.292 161.780, 222 161.744, 222 162.832 C 222 163.975, 229.289 166.126, 230.112 165.225 C 231.388 163.830, 232.137 160, 231.135 160 C 230.585 160, 229.856 160.880, 229.514 161.955 M 23.750 162.708 C 19.955 164.232, 18.383 166.648, 21.916 165.527 C 24.573 164.683, 25.730 166.993, 23.476 168.641 C 20.645 170.711, 22.378 171.287, 26.392 169.610 C 30.194 168.021, 31.417 165.817, 28 166.710 C 25.743 167.300, 25.243 165.157, 27.183 163.217 C 29.104 161.296, 27.761 161.097, 23.750 162.708 M 219 169.273 C 219 170.735, 225.465 173.449, 226.873 172.578 C 227.889 171.951, 229.091 168, 228.267 168 C 227.966 168, 227.188 168.728, 226.538 169.617 C 225.449 171.106, 225.102 171.104, 222.178 169.592 C 219.700 168.311, 219 168.241, 219 169.273 M 26.716 171.139 C 24.635 172.208, 23.198 173.512, 23.523 174.037 C 24.063 174.911, 26.979 173.767, 30.857 171.162 C 33.645 169.288, 30.355 169.270, 26.716 171.139 M 216.035 173.934 C 214.498 176.807, 214.745 177.787, 217.451 179.560 C 220.383 181.481, 223.641 180.708, 224.539 177.877 C 225.972 173.363, 218.256 169.785, 216.035 173.934 M 217.476 175.039 C 216.466 176.674, 219.511 179.402, 221.496 178.640 C 222.405 178.291, 222.997 177.217, 222.814 176.253 C 222.427 174.223, 218.528 173.336, 217.476 175.039 M 30.263 177.373 C 27.076 179.467, 26.095 181, 27.941 181 C 28.459 181, 29.160 180.550, 29.500 180 C 29.840 179.450, 30.611 179, 31.214 179 C 31.817 179, 31.565 179.823, 30.655 180.829 C 28.269 183.465, 28.611 184.312, 31.750 183.542 C 34.370 182.900, 34.405 182.939, 32.502 184.352 C 29.014 186.942, 31.686 187.286, 35.446 184.731 C 38.278 182.806, 38.768 182.052, 37.740 181.199 C 36.908 180.509, 35.900 180.452, 34.966 181.042 C 32.507 182.598, 31.593 182.107, 33.345 180.171 C 36.914 176.227, 34.854 174.356, 30.263 177.373 M 11 179.500 C 11 179.775, 11.225 180, 11.500 180 C 11.775 180, 12 179.775, 12 179.500 C 12 179.225, 11.775 179, 11.500 179 C 11.225 179, 11 179.225, 11 179.500 M 238 179.500 C 238 179.775, 238.225 180, 238.500 180 C 238.775 180, 239 179.775, 239 179.500 C 239 179.225, 238.775 179, 238.500 179 C 238.225 179, 238 179.225, 238 179.500 M 211.571 181.571 C 210.707 182.436, 210 183.561, 210 184.071 C 210 185.735, 213.951 189, 215.965 189 C 218.567 189, 220.424 185.556, 219.073 183.237 C 218.177 181.699, 218.057 181.762, 218.030 183.781 C 217.991 186.746, 215.303 187.739, 213.172 185.576 C 211.609 183.988, 211.614 183.793, 213.250 182.579 C 214.213 181.864, 215 180.992, 215 180.640 C 215 179.477, 213.168 179.975, 211.571 181.571 M 12 181.500 C 12 181.775, 12.225 182, 12.500 182 C 12.775 182, 13 181.775, 13 181.500 C 13 181.225, 12.775 181, 12.500 181 C 12.225 181, 12 181.225, 12 181.500 M 237 181.500 C 237 181.775, 237.225 182, 237.500 182 C 237.775 182, 238 181.775, 238 181.500 C 238 181.225, 237.775 181, 237.500 181 C 237.225 181, 237 181.225, 237 181.500 M 197 183 C 197 183.733, 197.300 184.033, 197.667 183.667 C 198.033 183.300, 198.033 182.700, 197.667 182.333 C 197.300 181.967, 197 182.267, 197 183 M 13 183.500 C 13 183.775, 13.225 184, 13.500 184 C 13.775 184, 14 183.775, 14 183.500 C 14 183.225, 13.775 183, 13.500 183 C 13.225 183, 13 183.225, 13 183.500 M 236 183.500 C 236 183.775, 236.225 184, 236.500 184 C 236.775 184, 237 183.775, 237 183.500 C 237 183.225, 236.775 183, 236.500 183 C 236.225 183, 236 183.225, 236 183.500 M 36.368 186.200 C 34.790 187.395, 33.313 188.513, 33.083 188.686 C 32.854 188.859, 32.932 189.265, 33.256 189.589 C 33.579 189.913, 35.489 189.061, 37.498 187.695 C 39.508 186.329, 40.721 184.945, 40.194 184.620 C 39.666 184.294, 37.945 185.005, 36.368 186.200 M 37.635 189.583 C 34.746 192.123, 34.620 194.390, 37.500 192 C 39.610 190.249, 40.419 191.348, 38.988 194.022 C 37.089 197.571, 39.225 198.101, 42.994 195.015 C 44.915 193.441, 46.155 191.822, 45.750 191.416 C 45.344 191.011, 44.050 191.539, 42.873 192.589 C 40.742 194.493, 40.737 194.491, 41.504 192 C 41.928 190.625, 42.486 188.938, 42.744 188.250 C 43.528 186.164, 40.676 186.908, 37.635 189.583 M 204.661 190.823 C 202.455 193.260, 202.562 194.240, 205.314 196.826 C 208.136 199.476, 209.204 199.537, 211.345 197.171 C 213.678 194.594, 213.409 193.320, 210.994 195.506 C 208.552 197.715, 207.430 196.934, 208.954 194.086 C 210.071 191.998, 208.736 191.001, 207.500 193 C 206.264 194.999, 204.929 194.002, 206.046 191.914 C 207.527 189.148, 206.738 188.527, 204.661 190.823 M 43.437 197.076 L 40.500 200.153 43.141 199.495 C 45.796 198.834, 48.626 200.958, 46.177 201.774 C 45.530 201.990, 45 202.848, 45 203.682 C 45 204.776, 45.952 204.406, 48.428 202.348 C 52.587 198.892, 52.874 197.743, 49.355 198.626 C 46.895 199.243, 46.757 199.105, 47.374 196.645 C 48.246 193.171, 47.040 193.303, 43.437 197.076 M 197.710 198.768 C 196.112 200.534, 196.197 200.799, 199.335 203.840 L 202.646 207.049 204.505 204.994 C 205.980 203.365, 206.168 202.376, 205.414 200.220 C 204.229 196.830, 200.158 196.063, 197.710 198.768 M 199.323 199.601 C 198.635 201.394, 201.612 204.358, 203.147 203.409 C 204.672 202.467, 204.048 200.096, 201.985 198.992 C 200.371 198.128, 199.842 198.249, 199.323 199.601 M 53.444 205.465 C 50.488 208.421, 50.428 209.173, 52.963 211.466 C 54.242 212.624, 55.548 212.978, 56.713 212.484 C 58.282 211.817, 58.205 211.647, 56.074 211.085 C 53.007 210.276, 52.457 208.686, 54.527 206.616 C 56.688 204.455, 58.077 204.579, 58.707 206.989 C 58.993 208.083, 59.627 208.730, 60.116 208.428 C 61.301 207.696, 59.486 204.401, 57.472 203.628 C 56.517 203.261, 54.919 203.990, 53.444 205.465 M 192 204.532 C 192 205.375, 192.695 207.727, 193.544 209.760 L 195.088 213.456 196.324 210.978 C 197.003 209.615, 198.108 208.444, 198.780 208.375 C 199.451 208.306, 200.338 208.191, 200.750 208.120 C 201.600 207.972, 193.907 203.079, 192.750 203.031 C 192.338 203.014, 192 203.689, 192 204.532 M 194 207 C 194 207.550, 194.450 208, 195 208 C 195.550 208, 196 207.550, 196 207 C 196 206.450, 195.550 206, 195 206 C 194.450 206, 194 206.450, 194 207 M 60.121 211.050 C 58.881 212.727, 58.035 214.605, 58.241 215.224 C 58.447 215.842, 59.646 214.901, 60.906 213.133 C 62.755 210.535, 63.469 210.145, 64.620 211.100 C 65.848 212.119, 65.826 212.616, 64.460 214.702 C 63.587 216.033, 63.049 217.648, 63.264 218.291 C 63.478 218.933, 64.458 218.231, 65.442 216.730 C 66.425 215.228, 68.137 214, 69.245 214 C 71.042 214, 71.205 214.488, 70.753 218.500 C 70.474 220.975, 70.415 223, 70.623 223 C 70.830 223, 71.827 222.213, 72.838 221.250 C 73.849 220.287, 75.536 218.921, 76.588 218.214 C 78.330 217.042, 78.255 216.977, 75.750 217.483 C 73.580 217.921, 72.997 217.665, 72.988 216.269 C 72.976 214.582, 67.148 210, 65.014 210 C 64.456 210, 64 209.550, 64 209 C 64 207.135, 62.385 207.989, 60.121 211.050 M 184.600 209.501 C 182.749 210.903, 182.762 211.030, 185.100 214.463 C 187.710 218.294, 189.497 219.140, 188.527 216.084 C 187.764 213.682, 189.609 212.430, 191.544 214.036 C 192.717 215.010, 193 214.930, 193 213.622 C 193 212.730, 192.580 212, 192.067 212 C 191.554 212, 190.849 211.100, 190.500 210 C 189.760 207.668, 187.298 207.460, 184.600 209.501 M 185.694 210.639 C 185.342 210.991, 185.282 211.647, 185.559 212.096 C 186.183 213.105, 189 212.120, 189 210.893 C 189 209.867, 186.647 209.686, 185.694 210.639 M 178.250 213.674 C 175.984 215.255, 174.995 217.739, 177.166 216.398 C 177.848 215.976, 179.281 216.869, 180.621 218.550 C 183.322 221.937, 184.881 221.275, 182.557 217.728 C 181.676 216.382, 181.238 214.543, 181.584 213.641 C 182.364 211.609, 181.194 211.621, 178.250 213.674 M 36 214.500 C 36 214.775, 36.225 215, 36.500 215 C 36.775 215, 37 214.775, 37 214.500 C 37 214.225, 36.775 214, 36.500 214 C 36.225 214, 36 214.225, 36 214.500 M 80.465 223.068 C 79.592 224.755, 79.060 226.668, 79.281 227.318 C 79.503 227.968, 80.664 226.588, 81.862 224.250 C 83.060 221.912, 83.593 220, 83.046 220 C 82.499 220, 81.337 221.381, 80.465 223.068 M 163.754 221.078 C 162.107 222.038, 162.121 222.317, 164.012 226.023 C 165.876 229.678, 166.188 229.871, 168.508 228.815 C 170.248 228.022, 171 226.882, 171 225.039 C 171 220.571, 167.711 218.773, 163.754 221.078 M 83.513 224.622 C 81.734 228.881, 81.718 229, 82.933 229 C 83.446 229, 84.196 227.988, 84.600 226.750 C 85.285 224.650, 85.391 224.717, 86.195 227.750 C 86.669 229.537, 87.411 231, 87.843 231 C 88.531 231, 92 224.712, 92 223.466 C 92 222.114, 90.163 223.299, 89.235 225.250 C 88.199 227.428, 88.142 227.396, 87.458 224.250 C 86.539 220.031, 85.386 220.140, 83.513 224.622 M 165 223.066 C 165 223.652, 165.481 225.031, 166.070 226.130 C 166.916 227.712, 167.434 227.885, 168.549 226.960 C 169.585 226.100, 169.690 225.288, 168.944 223.895 C 167.865 221.879, 165 221.277, 165 223.066 M 160.022 225.557 C 161.065 228.301, 160.264 228.211, 156.744 225.187 C 154.217 223.017, 153.684 224.214, 155.089 228.903 C 156.429 233.374, 158.636 234.669, 157.551 230.347 L 156.885 227.695 159.529 229.427 C 160.984 230.380, 162.404 230.929, 162.686 230.647 C 163.452 229.881, 160.987 223, 159.947 223 C 159.436 223, 159.468 224.102, 160.022 225.557 M 92.084 227.656 C 90.926 231.850, 91.171 232.550, 94.059 233.305 C 96.345 233.903, 100 230.991, 100 228.571 C 100 226.548, 97.200 224, 94.976 224 C 93.661 224, 92.790 225.101, 92.084 227.656 M 50 226.500 C 50 226.775, 50.225 227, 50.500 227 C 50.775 227, 51 226.775, 51 226.500 C 51 226.225, 50.775 226, 50.500 226 C 50.225 226, 50 226.225, 50 226.500 M 93.751 228.524 C 93.485 229.912, 93.701 231.315, 94.230 231.642 C 95.684 232.541, 98.359 229.378, 97.668 227.578 C 96.728 225.129, 94.287 225.718, 93.751 228.524 M 100.663 229.687 C 100.003 233.754, 101.221 236, 104.087 236 C 106.310 236, 108 233.134, 108 229.366 C 108 226.048, 106.329 227.310, 105.835 231 C 105.646 232.407, 104.844 233.500, 104 233.500 C 102.875 233.500, 102.582 232.563, 102.828 229.750 C 103.252 224.907, 101.448 224.854, 100.663 229.687 M 147.595 230.134 C 146.817 234.999, 147.298 235.845, 149.558 233.585 C 150.852 232.291, 151.521 232.187, 152.630 233.108 C 155.095 235.154, 155.312 233.241, 153.033 229.553 C 150.129 224.854, 148.409 225.038, 147.595 230.134 M 199 226.500 C 199 226.775, 199.225 227, 199.500 227 C 199.775 227, 200 226.775, 200 226.500 C 200 226.225, 199.775 226, 199.500 226 C 199.225 226, 199 226.225, 199 226.500 M 139.002 228.997 C 137.891 231.072, 137.784 231.087, 136.502 229.334 C 135.766 228.327, 134.850 227.816, 134.468 228.199 C 134.085 228.582, 134.723 230.104, 135.886 231.582 C 137.049 233.060, 138 234.911, 138 235.694 C 138 236.477, 138.457 236.835, 139.016 236.490 C 139.575 236.144, 139.806 235.495, 139.528 235.046 C 139.251 234.597, 139.521 232.805, 140.128 231.064 C 141.434 227.315, 140.661 225.896, 139.002 228.997 M 110 229.965 C 110 231.045, 110.913 232.418, 112.028 233.015 C 113.143 233.612, 113.778 234.550, 113.439 235.099 C 113.042 235.741, 112.310 235.672, 111.387 234.906 C 109.780 233.573, 108.441 234.286, 109.459 235.933 C 110.485 237.594, 114.991 237.188, 115.687 235.372 C 116.089 234.325, 115.458 233.100, 113.921 231.940 C 112.606 230.948, 111.850 229.817, 112.241 229.426 C 112.632 229.035, 113.638 229.284, 114.476 229.980 C 115.735 231.025, 116 230.963, 116 229.622 C 116 228.486, 115.101 228, 113 228 C 110.685 228, 110 228.448, 110 229.965 M 117.500 229 C 117.160 229.550, 117.584 230, 118.441 230 C 119.597 230, 120 231.049, 120 234.059 C 120 236.510, 120.396 237.873, 121 237.500 C 121.550 237.160, 122 235.334, 122 233.441 C 122 230.836, 122.425 229.996, 123.750 229.985 C 125.246 229.972, 125.282 229.828, 124 229 C 122.037 227.731, 118.284 227.731, 117.500 229 M 126.402 229.395 C 126.108 230.162, 126.050 232.524, 126.273 234.645 C 126.622 237.952, 126.790 238.180, 127.457 236.250 C 128.325 233.735, 131 233.169, 131 235.500 C 131 236.325, 131.450 237, 132 237 C 133.725 237, 133.190 229.287, 131.418 228.607 C 128.836 227.616, 126.972 227.909, 126.402 229.395 M 149 230 C 149 230.550, 149.450 231, 150 231 C 150.550 231, 151 230.550, 151 230 C 151 229.450, 150.550 229, 150 229 C 149.450 229, 149 229.450, 149 230 M 128 231 C 128 231.550, 128.675 232, 129.500 232 C 130.325 232, 131 231.550, 131 231 C 131 230.450, 130.325 230, 129.500 230 C 128.675 230, 128 230.450, 128 231 M 88 245.500 C 88 245.775, 88.225 246, 88.500 246 C 88.775 246, 89 245.775, 89 245.500 C 89 245.225, 88.775 245, 88.500 245 C 88.225 245, 88 245.225, 88 245.500" stroke="none" fill="#2864ba" fill-rule="evenodd"/></svg>