<?xml version="1.0" encoding="UTF-8"?>
<svg id="Layer_1" data-name="Layer 1" xmlns="http://www.w3.org/2000/svg" viewBox="0 0 250 64">
  <defs>
    <style>
      .cls-1 {
        fill: #07979c;
      }

      .cls-2 {
        fill: #f7941d;
      }
    </style>
  </defs>
  <path class="cls-2" d="m10.85,44.69v-24.25h5.11v10.01h10.4v-10.01h5.13v24.25h-5.13v-10.03h-10.4v10.03h-5.11Z"/>
  <path class="cls-2" d="m50.69,20.43h5.11v15.72c0,1.77-.42,3.32-1.25,4.65-.84,1.33-2.01,2.36-3.52,3.1s-3.27,1.11-5.27,1.11-3.78-.37-5.28-1.11c-1.5-.74-2.67-1.77-3.51-3.1-.84-1.33-1.25-2.88-1.25-4.65v-15.72h5.11v15.3c0,1.39.45,2.53,1.35,3.43.9.9,2.09,1.34,3.58,1.34s2.68-.45,3.58-1.34c.9-.9,1.35-2.04,1.35-3.43v-15.3Z"/>
  <path class="cls-2" d="m59.09,24.67v-4.23h19.91v4.23h-7.39v20.02h-5.11v-20.02h-7.41Z"/>
  <path class="cls-2" d="m82.3,44.69v-24.25h16.34v4.23h-11.23v5.7h10.37v4.15h-10.37v5.94h11.26v4.23h-16.38Z"/>
  <path class="cls-2" d="m113.57,45.01c-2.16,0-4.09-.49-5.8-1.46s-3.05-2.39-4.03-4.25-1.47-4.1-1.47-6.72.5-4.9,1.49-6.76c.99-1.86,2.34-3.27,4.05-4.25,1.71-.98,3.63-1.47,5.75-1.47,1.88,0,3.57.35,5.07,1.04,1.5.69,2.73,1.7,3.69,3.01.96,1.31,1.54,2.9,1.76,4.77h-5.18c-.2-1.33-.77-2.38-1.71-3.15s-2.12-1.15-3.52-1.15c-1.87,0-3.37.69-4.51,2.08-1.14,1.38-1.71,3.34-1.71,5.87s.57,4.55,1.72,5.89c1.14,1.35,2.64,2.02,4.48,2.02,1.36,0,2.51-.36,3.46-1.07.95-.72,1.54-1.72,1.78-3.01h5.18c-.18,1.49-.71,2.89-1.59,4.2-.87,1.31-2.06,2.38-3.56,3.19-1.5.81-3.29,1.22-5.36,1.22Z"/>
  <path class="cls-2" d="m127.78,44.69v-24.25h5.11v10.01h10.4v-10.01h5.13v24.25h-5.13v-10.03h-10.4v10.03h-5.11Z"/>
  <path class="cls-2" d="m163.85,32.74v4h-11.05v-4h11.05Z"/>
  <path class="cls-2" d="m171.27,44.87h-5.75l8.76-24.25h6.89l8.74,24.25h-5.73l-1.89-5.53h-9.15l-1.87,5.53Zm3.23-9.54h6.43l-3.11-9.18h-.2l-3.11,9.18Z"/>
  <path class="cls-2" d="m198.29,20.61v24.25h-5.34v-24.25h5.34Z"/>
  <polyline class="cls-2" points="241.4 24.84 233.68 24.84 233.68 44.87 228.33 44.87 228.33 24.84 220.59 24.84 220.59 20.61 241.4 20.61"/>
  <path class="cls-1" d="m211.67,25.4v1.5c-3.27.51-5.86,3.04-6.44,6.28h-1.29c.6-3.99,3.74-7.15,7.73-7.78Z"/>
  <path class="cls-1" d="m211.67,28.5v1.34c-1.58.5-2.83,1.75-3.32,3.34h-1.32c.55-2.3,2.35-4.11,4.64-4.69Z"/>
  <path class="cls-1" d="m211.67,28.5v1.34c-1.58.5-2.83,1.75-3.32,3.34h-1.32c.55-2.3,2.35-4.11,4.64-4.69Z"/>
  <path class="cls-1" d="m211.67,28.5v1.34c-1.58.5-2.83,1.75-3.32,3.34h-1.32c.55-2.3,2.35-4.11,4.64-4.69Z"/>
  <path class="cls-1" d="m211.67,22.63v1.35c-4.83.6-8.67,4.4-9.34,9.21h-1.31c.69-5.54,5.1-9.91,10.65-10.56Z"/>
  <path class="cls-1" d="m211.67,25.4v1.5c-3.27.51-5.86,3.04-6.44,6.28h-1.29c.6-3.99,3.74-7.15,7.73-7.78Z"/>
  <path class="cls-1" d="m211.67,28.5v1.34c-1.58.5-2.83,1.75-3.32,3.34h-1.32c.55-2.3,2.35-4.11,4.64-4.69Z"/>
  <path class="cls-1" d="m216.67,34.58c0,1.91-1.54,3.45-3.45,3.45s-3.38-1.47-3.45-3.32c0-.04,0-.09,0-.13,0-.5.11-.97.29-1.39.33-.73.9-1.33,1.61-1.69.44-.22.93-.35,1.45-.37.03,0,.06,0,.1,0,1.9,0,3.45,1.54,3.45,3.45Z"/>
  <path class="cls-1" d="m211.67,25.4v1.5c-3.27.51-5.86,3.04-6.44,6.28h-1.29c.6-3.99,3.74-7.15,7.73-7.78Z"/>
  <path class="cls-1" d="m211.67,28.5v1.34c-1.58.5-2.83,1.75-3.32,3.34h-1.32c.55-2.3,2.35-4.11,4.64-4.69Z"/>
  <path class="cls-2" d="m222.41,34.58c0,5.13-4.16,9.29-9.29,9.29s-9.22-4.09-9.28-9.16h4.28c.02,2.78,2.28,5.02,5.06,5.02s5.06-2.27,5.06-5.06-2.27-5.06-5.06-5.06h-.06v-4.32c5.13,0,9.29,4.16,9.29,9.29Z"/>
  <path class="cls-1" d="m211.67,22.63v1.35c-4.83.6-8.67,4.4-9.34,9.21h-1.31c.69-5.54,5.1-9.91,10.65-10.56Z"/>
  <path class="cls-1" d="m211.67,25.4v1.5c-3.27.51-5.86,3.04-6.44,6.28h-1.29c.6-3.99,3.74-7.15,7.73-7.78Z"/>
  <path class="cls-1" d="m211.67,28.5v1.34c-1.58.5-2.83,1.75-3.32,3.34h-1.32c.55-2.3,2.35-4.11,4.64-4.69Z"/>
  <path class="cls-1" d="m211.67,22.63v1.35c-4.83.6-8.67,4.4-9.34,9.21h-1.31c.69-5.54,5.1-9.91,10.65-10.56Z"/>
  <path class="cls-1" d="m211.67,25.4v1.5c-3.27.51-5.86,3.04-6.44,6.28h-1.29c.6-3.99,3.74-7.15,7.73-7.78Z"/>
  <path class="cls-1" d="m211.67,28.5v1.34c-1.58.5-2.83,1.75-3.32,3.34h-1.32c.55-2.3,2.35-4.11,4.64-4.69Z"/>
</svg>